<?xml version="1.0" encoding="utf-8"?>
<!-- Generator: Adobe Illustrator 21.1.0, SVG Export Plug-In . SVG Version: 6.00 Build 0)  -->
<svg version="1.1" id="Layer_1" xmlns="http://www.w3.org/2000/svg" xmlns:xlink="http://www.w3.org/1999/xlink" x="0px" y="0px"
	 viewBox="0 0 162.5 142" style="enable-background:new 0 0 162.5 142;" xml:space="preserve">
<style type="text/css">
	.st0{fill:none;stroke:#E3032E;stroke-width:2.5107;stroke-linecap:round;stroke-linejoin:round;stroke-miterlimit:10;}
	.st1{fill:none;stroke:#E41A3D;stroke-width:2.5107;stroke-linecap:round;stroke-linejoin:round;stroke-miterlimit:10;}
</style>
<g>
	<g>
		<polygon class="st0" points="32.3,117.8 5.3,116.3 5.3,12.2 32.3,10.2 		"/>
		<polyline class="st0" points="65.9,110.8 32.3,117.8 32.3,10.2 89.2,18.1 89.2,82.3 		"/>
		<line class="st0" x1="13.1" y1="11.6" x2="13.1" y2="116.7"/>
		<polyline class="st0" points="68.3,118.6 34.3,126.4 6.3,124.6 		"/>
		<line class="st0" x1="27.3" y1="111" x2="27.3" y2="101.1"/>
		<line class="st0" x1="22.5" y1="11.6" x2="22.5" y2="117"/>
	</g>
</g>
<path class="st1" d="M119.3,108.4h-13.7c-0.8,0-1.4-0.8-1.4-1.8c0-1,0.6-1.9,1.4-1.9h13.7c0.8,0,1.4,0.8,1.4,1.9
	C120.6,107.6,120,108.4,119.3,108.4z"/>
<path class="st1" d="M136.5,82.8H89.6c-13.1,0-23.7,10.6-23.7,23.7v0c0,13.1,10.6,23.7,23.7,23.7h6.3c3.1,0,6.1-1.1,8.5-3l4.5-3.7
	c2.4-2,5.9-2,8.3,0l4.5,3.7c2.4,2,5.4,3,8.6,3h6.3c13.1,0,23.7-10.6,23.7-23.7v0C160.2,93.5,149.6,82.8,136.5,82.8z"/>
<g>
	<path class="st1" d="M123.4,82.8c-6.2-0.1-10.3,0-10.3,0s-4.1-0.1-10.2,0c0,0,2.2-12.3,2-21.3c0-0.3,0.2-0.6,0.6-0.7
		c1-0.3,3.3-0.7,7.6-0.7c3.8,0,6.5,0.5,7.6,0.8c0.4,0.1,0.6,0.4,0.6,0.7C121.2,70.6,123.4,82.8,123.4,82.8z"/>
	<path class="st1" d="M121.4,65.6c0,0,1.1,3.9,7.9,8.1c6.9,4.2,6.6,9,6.6,9s-4.3,0.2-7.1,0c0,0-0.7-4.4-6.3-6.2c0,0-0.5-4-0.6-5.3
		C121.6,69.9,121.4,65.6,121.4,65.6z"/>
	<path class="st1" d="M104.8,65.7c0,0-1.1,3.9-7.9,8.1c-6.9,4.2-6.6,9-6.6,9s4.3,0.2,7.1,0c0,0,0.7-4.4,6.3-6.2c0,0,0.5-4,0.6-5.3
		C104.5,69.9,104.8,65.7,104.8,65.7z"/>
</g>
<path class="st1" d="M103.2,88.7H93.1c-11.1,0-20.1,8-20.1,17.9v0c0,9.9,9,17.9,20.1,17.9"/>
<path class="st1" d="M133,124.5c11.1,0,20.1-8,20.1-17.9v0c0-9.9-9-17.9-20.1-17.9h-11.6"/>
</svg>
