<svg version="1" id="Layer_1" xmlns="http://www.w3.org/2000/svg" viewBox="0 0 130 130"><style>.st0,.st1,.st2,.st3,.st4{fill:none;stroke:#e3032e;stroke-width:2.3;stroke-miterlimit:10}.st1,.st2,.st3,.st4{fill:#030404}.st2,.st3,.st4{fill:#fff}.st3,.st4{fill:none;stroke:#e4032e;stroke-linecap:round;stroke-linejoin:round}.st4{stroke:#e41a3d}.st5{fill:#e4032e}.st6,.st7{stroke:#e40d2e}.st6{fill:none;stroke-width:2.3;stroke-miterlimit:10}.st7{stroke-linecap:round;stroke-linejoin:round}.st10,.st11,.st7,.st8,.st9{fill:none;stroke-width:2.3;stroke-miterlimit:10}.st8{stroke-linecap:square;stroke-linejoin:round;stroke:#e40d2e}.st10,.st11,.st9{stroke:#e4032e}.st10,.st11{fill:#030404;stroke-linecap:round;stroke-linejoin:round}.st11{fill:#fff}</style><path class="st6" d="M102.1 46.4H28.9c-1.7 0-3.2-1.4-3.2-3.2V18.5c0-1.7 1.4-3.2 3.2-3.2h73.2c1.7 0 3.2 1.4 3.2 3.2v24.7c0 1.7-1.4 3.2-3.2 3.2z"/><path class="st7" d="M33.7 70.1l63.6 46.1M97.3 70.1l-63.6 46.1"/><path class="st6" d="M101.4 69.8H29.6c-2.1 0-3.9-1.7-3.9-3.9 0-2.1 1.7-3.9 3.9-3.9h71.8c2.1 0 3.9 1.7 3.9 3.9s-1.7 3.9-3.9 3.9zM37.5 45.8v15.9M92.2 46.6v16"/></svg>