<svg version="1" id="Layer_1" xmlns="http://www.w3.org/2000/svg" viewBox="0 0 130 130"><style>.st0,.st1,.st2,.st3,.st4{fill:none;stroke:#e3032e;stroke-width:2.3;stroke-miterlimit:10}.st1,.st2,.st3,.st4{fill:#030404}.st2,.st3,.st4{fill:#fff}.st3,.st4{fill:none;stroke:#e4032e;stroke-linecap:round;stroke-linejoin:round}.st4{stroke:#e41a3d}.st5{fill:#e4032e}.st6,.st7{stroke:#e40d2e}.st6{fill:none;stroke-width:2.3;stroke-miterlimit:10}.st7{stroke-linecap:round;stroke-linejoin:round}.st10,.st11,.st7,.st8,.st9{fill:none;stroke-width:2.3;stroke-miterlimit:10}.st8{stroke-linecap:square;stroke-linejoin:round;stroke:#e40d2e}.st10,.st11,.st9{stroke:#e4032e}.st10,.st11{fill:#030404;stroke-linecap:round;stroke-linejoin:round}.st11{fill:#fff}</style><circle class="st4" cx="67" cy="64.7" r="43.8"/><path class="st4" d="M67 25.2v8.2M67 96.1v8.3M106.6 64.8h-8.2M35.7 64.8h-8.3M42.5 89.3L39 92.8M95 36.8l-3.4 3.4M42.5 40.2L39 36.8M95 92.8l-3.4-3.5M63.8 62.1L50.6 47.8M69.5 65.3h15.4"/><circle class="st4" cx="66.2" cy="64.8" r="3.4"/><path class="st4" d="M67 113.8c-27.1 0-49.1-22-49.1-49.1s22-49.1 49.1-49.1 49.1 22 49.1 49.1"/><path class="st4" d="M67 10.4c30 0 54.3 24.3 54.3 54.3S97 119 67 119 12.7 94.7 12.7 64.7"/><path class="st5" d="M12 61.8l-1.8 3.1c-.3.5.1 1.1.7 1.1h3.6c.6 0 .9-.6.7-1.1l-1.8-3.1c-.4-.5-1.1-.5-1.4 0zM116.8 67.9l1.8-3.1c.3-.5-.1-1.1-.7-1.1h-3.6c-.6 0-.9.6-.7 1.1l1.8 3.1c.4.5 1.1.5 1.4 0z"/></svg>