<svg version="1" id="Layer_1" xmlns="http://www.w3.org/2000/svg" viewBox="0 0 130 130"><style>.st0,.st1,.st2,.st3{fill:none;stroke:#e41b3d;stroke-width:2.3;stroke-miterlimit:10}.st1,.st2,.st3{fill:#040505}.st2,.st3{fill:#fff}.st3{fill:none;stroke-linecap:round;stroke-linejoin:round}.st4{fill:#e50a47}.st5,.st6,.st7,.st8,.st9{fill:none;stroke:#e50a47;stroke-width:2.3;stroke-miterlimit:10}.st6,.st7,.st8,.st9{stroke-linecap:round;stroke-linejoin:round}.st7,.st8,.st9{stroke-linecap:square}.st8,.st9{fill:#040505;stroke-linecap:round}.st9{fill:#fff}</style><path class="st0" d="M115.9 111.1H15.8c-2.5 0-4.5-2-4.5-4.5V65.3c0-2.5 2-4.5 4.5-4.5H116c2.5 0 4.5 2 4.5 4.5v41.4c-.1 2.4-2.1 4.4-4.6 4.4zM65 60.8c0-5.5-4.5-10-10-10H38.4c-3.9 0-7-3.1-7-7s3.1-7 7-7h46.3c4.2 0 7.7-3.4 7.7-7.7 0-4.2-3.4-7.7-7.7-7.7h-32"/><path class="st0" d="M23.5 72.6h-4.7c-.4 0-.8-.4-.8-.8v-4.7c0-.4.4-.8.8-.8h4.7c.4 0 .8.4.8.8v4.7c0 .4-.3.8-.8.8zM34.8 72.6h-4.7c-.4 0-.8-.4-.8-.8v-4.7c0-.4.4-.8.8-.8h4.7c.4 0 .8.4.8.8v4.7c0 .4-.4.8-.8.8zM46 72.6h-4.7c-.4 0-.8-.4-.8-.8v-4.7c0-.4.4-.8.8-.8H46c.4 0 .8.4.8.8v4.7c0 .4-.3.8-.8.8zM57.3 72.6h-4.7c-.4 0-.8-.4-.8-.8v-4.7c0-.4.4-.8.8-.8h4.7c.4 0 .8.4.8.8v4.7c0 .4-.4.8-.8.8zM68.5 72.6h-4.7c-.4 0-.8-.4-.8-.8v-4.7c0-.4.4-.8.8-.8h4.7c.4 0 .8.4.8.8v4.7c0 .4-.3.8-.8.8zM79.8 72.6h-4.7c-.4 0-.8-.4-.8-.8v-4.7c0-.4.4-.8.8-.8h4.7c.4 0 .8.4.8.8v4.7c0 .4-.4.8-.8.8zM91 72.6h-4.7c-.4 0-.8-.4-.8-.8v-4.7c0-.4.4-.8.8-.8H91c.4 0 .8.4.8.8v4.7c0 .4-.3.8-.8.8zM102.3 72.6h-4.7c-.4 0-.8-.4-.8-.8v-4.7c0-.4.4-.8.8-.8h4.7c.4 0 .8.4.8.8v4.7c0 .4-.4.8-.8.8zM113.5 72.6h-4.7c-.4 0-.8-.4-.8-.8v-4.7c0-.4.4-.8.8-.8h4.7c.4 0 .8.4.8.8v4.7c0 .4-.3.8-.8.8zM31.4 88.3H18.8c-.4 0-.8.3-.8.8v4.7c0 .4.3.8.8.8h16c.4 0 .8-.3.8-.8v-4.7c0-.4-.3-.8-.8-.8h-3.4zM108.1 78v9.7c0 .4-.3.6-.6.6h-10c-.4 0-.6.3-.6.6v5c0 .4.3.6.6.6h16.2c.4 0 .6-.3.6-.6V78c0-.4-.3-.6-.6-.6h-5c-.4-.1-.6.2-.6.6zM23.5 105.6h-4.6c-.5 0-.8-.4-.8-.8v-4.6c0-.5.4-.8.8-.8h4.6c.5 0 .8.4.8.8v4.6c0 .4-.4.8-.8.8zM34.7 105.6h-4.6c-.5 0-.8-.4-.8-.8v-4.6c0-.5.4-.8.8-.8h4.6c.5 0 .8.4.8.8v4.6c.1.4-.3.8-.8.8zM46 105.6h-4.6c-.5 0-.8-.4-.8-.8v-4.6c0-.5.4-.8.8-.8H46c.5 0 .8.4.8.8v4.6c0 .4-.3.8-.8.8zM69.3 99.3H52.6c-.5 0-.8.4-.8.8v4.6c0 .5.4.8.8.8h27.1c.5 0 .8-.4.8-.8v-4.6c0-.5-.4-.8-.8-.8H69.3zM91 105.6h-4.6c-.5 0-.8-.4-.8-.8v-4.6c0-.5.4-.8.8-.8H91c.5 0 .8.4.8.8v4.6c0 .4-.3.8-.8.8zM102.2 105.6h-4.6c-.5 0-.8-.4-.8-.8v-4.6c0-.5.4-.8.8-.8h4.6c.5 0 .8.4.8.8v4.6c.1.4-.3.8-.8.8zM113.5 105.6h-4.6c-.5 0-.8-.4-.8-.8v-4.6c0-.5.4-.8.8-.8h4.6c.5 0 .8.4.8.8v4.6c0 .4-.3.8-.8.8zM43.7 25.1h6.2c1.8 0 3.2-1.4 3.2-3.2 0-1.8-1.4-3.2-3.2-3.2h-6.2v6.4zM23.5 83.6h-4.7c-.4 0-.8-.4-.8-.8v-4.7c0-.4.4-.8.8-.8h4.7c.4 0 .8.4.8.8v4.7c0 .4-.3.8-.8.8zM34.8 83.6h-4.7c-.4 0-.8-.4-.8-.8v-4.7c0-.4.4-.8.8-.8h4.7c.4 0 .8.4.8.8v4.7c0 .4-.4.8-.8.8zM46 83.6h-4.7c-.4 0-.8-.4-.8-.8v-4.7c0-.4.4-.8.8-.8H46c.4 0 .8.4.8.8v4.7c0 .4-.3.8-.8.8zM57.3 83.6h-4.7c-.4 0-.8-.4-.8-.8v-4.7c0-.4.4-.8.8-.8h4.7c.4 0 .8.4.8.8v4.7c0 .4-.4.8-.8.8zM68.5 83.6h-4.7c-.4 0-.8-.4-.8-.8v-4.7c0-.4.4-.8.8-.8h4.7c.4 0 .8.4.8.8v4.7c0 .4-.3.8-.8.8zM79.8 83.6h-4.7c-.4 0-.8-.4-.8-.8v-4.7c0-.4.4-.8.8-.8h4.7c.4 0 .8.4.8.8v4.7c0 .4-.4.8-.8.8zM91 83.6h-4.7c-.4 0-.8-.4-.8-.8v-4.7c0-.4.4-.8.8-.8H91c.4 0 .8.4.8.8v4.7c0 .4-.3.8-.8.8z"/><path class="st0" d="M102.3 83.6h-4.7c-.4 0-.8-.4-.8-.8v-4.7c0-.4.4-.8.8-.8h4.7c.4 0 .8.4.8.8v4.7c0 .4-.4.8-.8.8zM46 94.6h-4.7c-.4 0-.8-.4-.8-.8v-4.7c0-.4.4-.8.8-.8H46c.4 0 .8.4.8.8v4.7c0 .4-.3.8-.8.8zM57.3 94.6h-4.7c-.4 0-.8-.4-.8-.8v-4.7c0-.4.4-.8.8-.8h4.7c.4 0 .8.4.8.8v4.7c0 .4-.4.8-.8.8zM68.5 94.6h-4.7c-.4 0-.8-.4-.8-.8v-4.7c0-.4.4-.8.8-.8h4.7c.4 0 .8.4.8.8v4.7c0 .4-.3.8-.8.8zM79.8 94.6h-4.7c-.4 0-.8-.4-.8-.8v-4.7c0-.4.4-.8.8-.8h4.7c.4 0 .8.4.8.8v4.7c0 .4-.4.8-.8.8zM91 94.6h-4.7c-.4 0-.8-.4-.8-.8v-4.7c0-.4.4-.8.8-.8H91c.4 0 .8.4.8.8v4.7c0 .4-.3.8-.8.8z"/></svg>