<svg id="Isolation_Mode" xmlns="http://www.w3.org/2000/svg" viewBox="0 0 115.3 39"><style>.st0{fill:#fff}</style><path class="st0" d="M86.6 12.6h-6.2c-1.4 0-2.5.4-3.3 1.1-.8.7-1.2 1.8-1.2 3.2v4.9c0 1.4.4 2.5 1.2 3.2.8.7 1.9 1.1 3.3 1.1h2.1c.6 0 1.2-.5 1.3-1.1v.5c0 .3.3.6.6.6h2.2c.4 0 .6-.2.6-.6V13.1c0-.4-.2-.5-.6-.5zm-2.8 7.6v3H81c-.6 0-1-.1-1.2-.4-.2-.2-.3-.6-.3-1.2V17c0-.6.1-1 .3-1.2.2-.2.6-.4 1.2-.4h2.5c.2 0 .3.1.3.3v4.5zM96.8 12.6h-6.2c-.4 0-.6.2-.6.6v16.1c0 .4.2.6.6.6h2.2c.3 0 .6-.3.6-.6v-4.1c.1.6.7 1.1 1.3 1.1h2.1c1.4 0 2.5-.4 3.3-1.1.8-.7 1.2-1.8 1.2-3.2v-4.9c0-1.4-.4-2.5-1.2-3.2-.8-1-1.9-1.3-3.3-1.3zm1 9.1c0 .6-.1 1-.3 1.2-.2.2-.6.4-1.2.4h-2.8v-7.4c0-.2.1-.3.3-.3h2.5c.6 0 1 .1 1.2.4.2.2.3.6.3 1.2v4.5zM113.6 13.7c-.8-.7-1.9-1.1-3.3-1.1h-6.2c-.4 0-.6.2-.6.6v16.1c0 .4.2.6.6.6h2.2c.3 0 .6-.3.6-.6v-4.1c.1.6.7 1.1 1.3 1.1h2.1c1.4 0 2.5-.4 3.3-1.1.8-.7 1.2-1.8 1.2-3.2v-4.9c-.1-1.6-.4-2.7-1.2-3.4zm-2.2 8c0 .6-.1 1-.3 1.2-.2.2-.6.4-1.2.4H107v-7.4c0-.2.1-.3.3-.3h2.5c.6 0 1 .1 1.2.4.2.2.3.6.3 1.2v4.5zM48.7 19L46 17.4c-.8-.4-1.1-.8-1.1-1.2v-.1c0-.4.4-.7 1.3-.7h3.7c.2 0 .4 0 .4-.1.1-.1.1-.2.1-.4v-1.7c0-.4-.2-.6-.5-.6h-4.4c-1.4 0-2.4.3-3.1.9-.7.6-1 1.5-1 2.7 0 .8.2 1.5.6 2 .4.5 1.1 1 2 1.5l2.6 1.5c.7.4 1.1.8 1.1 1.2v.1c0 .5-.4.8-1.3.8H42c-.2 0-.4 0-.4.1-.1.1-.1.2-.1.4v1.7c0 .4.2.6.5.6h5c2.8 0 4.2-1.2 4.2-3.5 0-.8-.2-1.5-.6-2.1-.3-.5-1-1-1.9-1.5zM73.5 23.2h-1.1c-.6 0-1-.1-1.2-.4-.2-.2-.4-.6-.4-1.2v-5.9c0-.2.1-.3.3-.3h2.1c.2 0 .4 0 .4-.1s.1-.2.1-.4v-1.8c0-.4-.2-.6-.6-.6H71c-.2 0-.3-.1-.3-.3V9.7c0-.4-.2-.6-.6-.6H68c-.4 0-.6.2-.6.6v2.5c0 .2.1.3.3.3h2.1c.4 0 .6.2.6.6V15c0 .2 0 .3-.1.4s-.2.1-.4.1h-2.1c-.2 0-.3.1-.3.3V21.9c0 1.4.4 2.5 1.2 3.2.8.7 1.9 1.1 3.3 1.1h1.6c.2 0 .4 0 .4-.1v-2.2c0-.5-.2-.7-.5-.7zM60.2 12.6H58c-1.4 0-2.5.4-3.3 1.1-.8.7-1.2 1.8-1.2 3.2v4.9c0 1.4.4 2.5 1.2 3.2.8.7 1.9 1.1 3.3 1.1h3.5c.2 0 .4 0 .4-.1.1-.1.1-.2.1-.4v-1.8c0-.4-.2-.6-.6-.6h-3c-.6 0-.9-.1-1.2-.4-.2-.2-.4-.6-.4-1.2v-.9h7c.3 0 .6-.3.6-.6v-3.4c0-1.4-.4-2.5-1.2-3.2-.6-.6-1.6-.9-3-.9zm1 5.5c0 .2-.1.3-.3.3H57V17c0-.6.1-1 .3-1.2.2-.2.6-.3 1.2-.3h1.1c.6 0 1 .1 1.2.3.2.2.3.6.3 1.2v1.1zM34.2 16h-2.5c-.3 0-.5.2-.5.5v9.6c0 .8-.4 1.4-1.1 1.8l-11.5 6.6c-.7.4-1.5.4-2.1 0L5.1 27.9c-.7-.4-1.1-1.1-1.1-1.8V12.8c0-.8.4-1.4 1.1-1.8l11.5-6.6c.3-.2.7-.3 1.1-.3.4 0 .7.1 1.1.3L30.2 11c.5.3.9.8 1 1.3.1.2.3.3.5.3h2.5c.3 0 .5-.2.5-.5-.2-1.7-1.2-3.2-2.7-4.1L20.4 1.4c-1.7-1-3.8-1-5.5 0L3.4 8C1.7 9 .6 10.8.6 12.8v13.3c0 2 1 3.8 2.8 4.8l11.5 6.6c.8.5 1.8.7 2.8.7 1 0 1.9-.2 2.8-.7L32 30.9c1.7-1 2.8-2.8 2.8-4.8v-9.6c-.1-.2-.3-.5-.6-.5z"/><path class="st0" d="M21.5 12.6c-2.3 0-4.4 1.8-4.9 4l-1.1 4.9c-.2.7-.9 1.3-1.6 1.3h-2.6c-.3 0-.5.2-.5.5v2.4c0 .3.2.5.5.5h2.6c2.3 0 4.4-1.8 4.9-4l1.1-4.9c.2-.7.9-1.3 1.6-1.3h2.6c.3 0 .5-.2.5-.5v-2.4c0-.3-.2-.5-.5-.5h-2.6z"/></svg>