<svg version="1" id="Layer_1" xmlns="http://www.w3.org/2000/svg" viewBox="0 0 664.3 730.6"><style>.st0{stroke-linecap:round;stroke-linejoin:round}.st0,.st1,.st2,.st3,.st4{fill:#fff;stroke:#363c47;stroke-width:14.3252;stroke-miterlimit:10}.st2,.st3,.st4{fill:none;stroke-width:8.9533}.st3,.st4{stroke-width:14.3252}.st4{fill:#662482;stroke-linecap:round;stroke-linejoin:round}.st5{fill:#363c47}.st6{fill:#fff;stroke:#9f5ca0;stroke-width:14.3252;stroke-linecap:round;stroke-linejoin:round;stroke-miterlimit:10}.st7{fill:#e3032e}.st8{fill:#fff}.st10,.st9{fill:none;stroke:#e3032e;stroke-width:4.4766;stroke-miterlimit:10}.st10{stroke-linecap:round;stroke-linejoin:round}</style><path class="st0" d="M82.6 560.6l560.1 161.2"/><path class="st1" d="M226.3 602.4L170.8 99.2"/><path class="st2" d="M193.8 307.8l286.7-22.2 90.8-30.7M226.3 305.3l22.4 225h-30.4M284.8 300.8l22.8 236.8-58.9-7.3M480.5 285.6l-4.9 27.6 31.3 277.2"/><path class="st2" d="M307.6 537.6l280.2 77.3 19.3-2.7"/><path class="st3" d="M548.7 26L613 671.3l-8.6 39.9"/><path class="st2" d="M498.4 515.6l-130.1 14.7-11 21.1"/><path class="st4" d="M78.2 115.7L631.6 10.1"/><path class="st5" d="M454.9 305.3l-149.8 11.5 18.1 198.8L481.4 497l-5.3-41.1-114.7 13L350 350.8l109-9.9zM291.1 518.7l-28.3-4.2L243.2 319l27.3-1.6z"/><path transform="rotate(-6.686 143.67 368.731)" class="st5" d="M107.8 309h71.6v119.4h-71.6z"/><circle class="st5" cx="78.2" cy="115.7" r="25.4"/><path transform="rotate(-4.38 349.751 267.108) scale(1.00002)" class="st7" d="M231.1 245.6h237.3v43H231.1z"/><g><path class="st8" d="M280.9 276.6l-2.3.2c-.2 0-.4-.1-.4-.3l-2.4-9.5c0-.2.1-.3.3-.4l1.7-.1c.2 0 .4.1.4.3l1.5 7.9h.1l1-8.1c0-.2.1-.3.3-.3l1.8-.1c.2 0 .3.1.4.2l2.1 7.9h.1l.4-8c0-.2.1-.4.4-.4l1.7-.1c.3 0 .4.1.4.3l-1.1 9.8c0 .2-.1.4-.3.4l-2.3.2c-.2 0-.4-.1-.4-.3l-2-7.4h-.1l-.9 7.6c0 .1-.2.2-.4.2zM295.9 275.6l-5.3.4c-.2 0-.3-.1-.4-.3l-.7-9.7c0-.2.1-.3.3-.4l5.3-.4c.2 0 .3.1.3.3l.1 1.1c0 .2-.1.3-.3.4l-3.4.2c-.1 0-.2.1-.2.2l.1 2.1c0 .1.1.2.2.2l2.7-.2c.2 0 .3.1.4.3l.1 1.1c0 .2-.1.3-.3.4l-2.7.2c-.1 0-.2.1-.2.2l.2 2.2c0 .1.1.2.2.2l3.4-.2c.2 0 .3.1.3.3l.1 1.1c.1.1 0 .3-.2.3zM302.6 275.1l-1.5.1c-.2 0-.3-.1-.2-.3l1.9-9.8c.1-.2.2-.4.5-.4l2.1-.1c.3 0 .4.1.5.3l3.2 9.5c.1.2 0 .3-.2.4l-1.5.1c-.1 0-.2 0-.2-.1 0 0-.1-.1-.1-.3l-.6-1.7-3.1.2-.3 1.8c0 .1 0 .2-.1.3h-.4zm1.8-8.5l-.8 4.7 2.4-.2-1.6-4.5zM312.2 274.5l-1.4.1c-.2 0-.3-.1-.4-.3l-.7-9.7c0-.2.1-.3.3-.4l3.8-.3c.8-.1 1.5.1 2 .6.5.4.8 1.1.8 1.9l.1 1.3c.1 1.2-.3 2.1-1.3 2.5v.1l2 3.5c.1.3 0 .4-.2.4l-1.3.1h-.4c-.1 0-.2-.1-.2-.3l-1.8-3.4-1.1.1c-.1 0-.2.1-.2.2l.2 3.3c.2.1 0 .2-.2.3zm.2-5.5l1.6-.1c.3 0 .6-.1.7-.3.1-.2.2-.4.2-.7l-.1-1.3c0-.3-.1-.6-.3-.7-.2-.1-.4-.2-.8-.2l-1.6.1c-.1 0-.2.1-.2.2l.2 2.8c.1.1.1.2.3.2zM324.9 273.6l-5.3.4c-.2 0-.3-.1-.4-.3l-.7-9.7c0-.2.1-.3.3-.4l5.3-.4c.2 0 .3.1.3.3l.1 1.1c0 .2-.1.3-.3.4l-3.4.2c-.1 0-.2.1-.2.2l.1 2.1c0 .1.1.2.2.2l2.7-.2c.2 0 .3.1.4.3l.1 1.1c0 .2-.1.3-.3.4l-2.7.2c-.1 0-.2.1-.2.2l.2 2.2c0 .1.1.2.2.2l3.4-.2c.2 0 .3.1.3.3l.1 1.1c.1.1 0 .3-.2.3zM332.3 273.1l-1.4.1c-.2 0-.3-.1-.4-.3l-.7-9.7c0-.2.1-.3.3-.4l1.4-.1c.2 0 .3.1.4.3l.3 3.8c0 .1.1.2.2.2l2.7-.2c.1 0 .2-.1.2-.2l-.3-3.8c0-.2.1-.3.3-.4l1.4-.1c.2 0 .3.1.4.3l.7 9.7c0 .2-.1.3-.3.4l-1.4.1c-.2 0-.3-.1-.4-.3l-.3-3.8c0-.1-.1-.2-.2-.2l-2.7.2c-.1 0-.2.1-.2.2l.3 3.8c0 .2-.1.4-.3.4zM345.4 272.2l-5.3.4c-.2 0-.3-.1-.4-.3l-.7-9.7c0-.2.1-.3.3-.4l5.3-.4c.2 0 .3.1.3.3l.1 1.1c0 .2-.1.3-.3.4l-3.4.2c-.1 0-.2.1-.2.2l.1 2.1c0 .1.1.2.2.2l2.7-.2c.2 0 .3.1.4.3l.1 1.1c0 .2-.1.3-.3.4l-2.7.2c-.1 0-.2.1-.2.2l.2 2.2c0 .1.1.2.2.2l3.4-.2c.2 0 .3.1.3.3l.1 1.1c.1.1 0 .2-.2.3zM349.2 271.9l-1.4.1c-.2 0-.3-.1-.4-.3l-.7-9.7c0-.2.1-.3.3-.4l3.8-.3c.8-.1 1.5.1 2 .6.5.4.8 1.1.8 1.9l.1 1.3c.1 1.2-.3 2-1.3 2.5v.1l2 3.5c.1.3 0 .4-.2.4l-1.3.1h-.4c-.1 0-.2-.1-.2-.3l-1.8-3.4-1.1.1c-.1 0-.2.1-.2.2l.2 3.3c.1.2 0 .3-.2.3zm.2-5.5l1.6-.1c.3 0 .6-.1.7-.3.2-.2.2-.4.2-.7l-.1-1.3c0-.3-.1-.6-.3-.7-.2-.1-.4-.2-.8-.2l-1.6.1c-.1 0-.2.1-.2.2l.2 2.8c.1.2.1.2.3.2zM361.9 271l-5.3.4c-.2 0-.3-.1-.4-.3l-.7-9.7c0-.2.1-.3.3-.4l5.3-.4c.2 0 .3.1.3.3l.1 1.1c0 .2-.1.3-.3.4l-3.4.2c-.1 0-.2.1-.2.2l.1 2.1c0 .1.1.2.2.2l2.7-.2c.2 0 .3.1.4.3l.1 1.1c0 .2-.1.3-.3.4l-2.7.2c-.1 0-.2.1-.2.2l.2 2.2c0 .1.1.2.2.2l3.4-.2c.2 0 .3.1.3.3l.1 1.1c.1.2 0 .3-.2.3z"/></g><path id="location-icon" class="st8" d="M254.5 261.8c-3.8.2-6.6 3.4-6.4 7.2.2 3.8 3.4 7.9 7.7 14.3 3.4-6.8 6.2-11.3 5.9-15.1-.2-3.7-3.4-6.6-7.2-6.4zm.6 9.1c-1.3.1-2.5-.9-2.6-2.3-.1-1.3.9-2.5 2.3-2.6 1.3-.1 2.5.9 2.6 2.3 0 1.4-1 2.5-2.3 2.6z"/><circle class="st9" cx="78.2" cy="115.7" r="10.3"/><path class="st10" d="M88.4 114.2l82.4-15 23 208.6 47.2-3.7-2.5-18.5"/><g><path class="st7" d="M196.3 365.5l-.2-2c0-.2.1-.3.3-.4l8.4-2.5c.2-.1.3 0 .3.3l.2 1.5c0 .2-.1.3-.3.4l-6.9 1.6v.1l7.2.6c.2 0 .3.1.3.3l.2 1.6c0 .2 0 .3-.2.3l-6.9 2.2v.1h7.1c.2 0 .3.1.4.3l.2 1.5c0 .2-.1.3-.3.3l-8.7-.6c-.2 0-.3-.1-.3-.3l-.2-2c0-.2.1-.3.3-.4l6.5-2v-.1l-6.8-.5c-.5 0-.6-.1-.6-.3zM197.6 377.6l-.2-1.6c-.1-.7.1-1.4.4-1.8.4-.5.9-.7 1.7-.8l4.5-.5c.7-.1 1.3.1 1.8.4.4.4.7.9.8 1.7l.2 1.6c.1.7 0 1.3-.4 1.8s-.9.7-1.7.8l-4.5.5c-.8.1-1.3-.1-1.8-.4-.4-.4-.7-.9-.8-1.7zm1.5-1.5l.1 1c0 .3.1.5.3.6.1.1.4.2.7.1l4.3-.5c.3 0 .5-.1.6-.3.1-.1.2-.4.1-.7l-.1-1c0-.3-.1-.5-.3-.6-.1-.1-.4-.1-.7-.1l-4.3.5c-.3 0-.5.1-.6.3-.1.2-.2.4-.1.7zM207.7 384.8l.1 1.2c0 .2-.1.3-.3.3l-6.5.7c-.7.1-1.3-.1-1.8-.4-.5-.4-.7-.9-.8-1.7l-.2-1.4c-.1-.8 0-1.4.4-1.8.4-.5.9-.7 1.7-.8l1.3-.2c.2 0 .3.1.3.3l.1 1.2c0 .2-.1.3-.3.3l-1.3.1c-.3 0-.5.1-.6.3-.1.1-.2.4-.1.7l.1.8c0 .3.1.5.3.6.1.1.4.1.7.1l6.4-.7c.4.1.5.2.5.4zM201.2 388.6h.3c.2 0 .3.1.3.3l.1 1.2c0 .2-.1.3-.3.3h-.1c-.4 0-.6.1-.7.3-.1.2-.2.4-.1.8l.1.7c0 .4.1.6.3.7.2.1.4.2.8.1h.2c.3 0 .5-.2.6-.4.1-.2.2-.5.2-.9v-1.1c0-.4.1-.8.2-1.1.1-.3.3-.6.7-.9.4-.3.8-.4 1.4-.5l.5-.1c.7-.1 1.3.1 1.8.4.5.4.7.9.8 1.7l.2 1.4c.1.7-.1 1.4-.4 1.8-.4.5-.9.7-1.6.8h-.3c-.2 0-.3-.1-.3-.3l-.1-1.2c0-.2.1-.3.3-.3h.1c.4 0 .6-.1.7-.3.1-.2.2-.4.1-.8l-.1-.6c0-.4-.1-.6-.3-.8-.2-.1-.5-.2-.9-.1h-.3c-.4.1-.7.5-.6 1.3 0 .8-.1 1.5-.2 2.2-.1.3-.3.7-.7.9-.3.3-.8.4-1.4.5l-.5.1c-.7.1-1.3-.1-1.8-.4-.5-.4-.7-.9-.8-1.7l-.2-1.5c-.1-.7.1-1.3.4-1.8.4-.3.9-.6 1.6-.7zM200 398.3l-.1-1.2c0-.2.1-.3.3-.3l8.6-1c.2 0 .3.1.3.3l.1 1.2c0 .2-.1.3-.3.3l-4.1.5c.2.1.5.2.9.3l3.4 1.8c.2.1.3.3.4.5l.2 1.4c0 .1 0 .2-.1.2s-.1 0-.2-.1l-4-2.3-4.4 3.6c-.1.1-.2.1-.3.1-.1 0-.1-.1-.1-.3l-.1-1c0-.3 0-.6.2-.7l3.2-2.6-1.2-.8-2.4.3c-.2.1-.3 0-.3-.2zM201.1 408.5l-.2-1.6c-.1-.7 0-1.4.4-1.8.4-.5.9-.7 1.7-.8l4.5-.5c.7-.1 1.3.1 1.8.4.4.4.7.9.8 1.7l.2 1.6c.1.7 0 1.4-.4 1.8-.4.5-.9.7-1.7.8l-4.5.5c-.8.1-1.3-.1-1.8-.4-.4-.4-.7-1-.8-1.7zm1.4-1.5l.1 1c0 .3.1.5.3.6.1.1.4.2.7.1l4.3-.5c.3 0 .5-.1.6-.3.1-.1.2-.4.1-.7l-.1-1c0-.3-.1-.5-.3-.6-.1-.1-.4-.1-.7-.1l-4.3.5c-.3 0-.5.1-.6.3 0 .2-.1.4-.1.7zM201.9 415.7l-.2-2c0-.2.1-.3.3-.4l8.4-2.5c.2 0 .3 0 .3.3l.2 1.5c0 .2-.1.3-.3.4l-6.9 1.6v.1l7.2.6c.2 0 .3.1.3.3l.2 1.6c0 .2 0 .3-.2.3l-6.9 2.2v.1h7.1c.2 0 .3.1.4.3l.2 1.5c0 .2-.1.3-.3.3l-8.7-.6c-.2 0-.3-.1-.3-.3l-.2-2c0-.2.1-.3.3-.4l6.5-2v-.1l-6.8-.5c-.4 0-.5-.1-.6-.3zM203 425l-.2-1.4c0-.2.1-.2.3-.2l8.8 1.3c.2 0 .3.2.3.4l.2 1.9c0 .2-.1.4-.2.5l-8.3 3.2c-.2.1-.3 0-.3-.1l-.2-1.4v-.2s.1-.1.2-.1l1.5-.6-.3-2.8-1.6-.2c-.1 0-.2 0-.2-.1v-.2zm7.7 1.2l-4.2-.6.2 2.1 4-1.5z"/></g><g><path class="st7" d="M245.1 612.3l-1.9-.6c-.2-.1-.3-.2-.3-.4l.9-8.7c0-.2.2-.3.4-.2l1.4.4c.2.1.3.2.2.4l-1.2 7h.1l3.3-6.4c.1-.2.2-.2.4-.2l1.5.5c.2 0 .3.2.2.3l-.6 7.2h.1l2.8-6.5c.1-.2.2-.3.4-.2l1.4.4c.2.1.3.2.2.4l-3.9 7.8c-.1.2-.2.3-.4.2l-1.9-.6c-.2-.1-.3-.2-.2-.4l.6-6.8h-.1l-3.1 6.1c.1.3-.1.3-.3.3zM256.4 615.6l-1.2-.3c-.2-.1-.3-.2-.2-.4l.9-2.9-1-6c0-.1 0-.2.1-.2s.1-.1.2 0l1.5.4c.1 0 .2.2.2.4l.4 3.7h.1l2.3-2.9c.1-.2.3-.2.4-.2l1.5.4c.1 0 .2.1.2.1 0 .1 0 .1-.1.2l-4.1 4.6-.9 2.9c0 .1-.1.2-.3.2zM260.7 614.4l.1-.3c.1-.2.2-.3.4-.2l1.2.3c.2.1.3.2.2.4v.1c-.1.4-.1.6 0 .8.1.2.3.3.7.4l.6.2c.4.1.6.1.8 0 .2-.1.3-.3.4-.7v-.2c.1-.3 0-.5-.1-.7-.2-.2-.4-.4-.7-.5-.3-.1-.6-.3-1-.5-.3-.2-.7-.4-1-.6-.3-.2-.5-.5-.6-1-.1-.4-.1-.9.1-1.5l.1-.5c.2-.7.6-1.2 1.1-1.5.5-.3 1.1-.3 1.9-.1l1.4.4c.7.2 1.2.6 1.5 1.1.3.5.3 1.1.1 1.8l-.1.3c-.1.2-.2.3-.4.2l-1.2-.3c-.2-.1-.3-.2-.2-.4v-.1c.1-.4.1-.6 0-.8-.1-.2-.3-.3-.7-.4l-.5-.2c-.4-.1-.6-.1-.8 0-.2.1-.3.4-.4.8l-.1.3c-.1.4.2.8.9 1.1.8.3 1.4.6 1.9 1.1.3.2.5.6.6 1 .1.4.1.9-.1 1.4l-.1.5c-.2.7-.6 1.2-1.1 1.5-.5.3-1.1.3-1.8.1l-1.5-.4c-.7-.2-1.2-.6-1.5-1.1-.2-.5-.3-1.1-.1-1.8zM269.2 619.2l-1.2-.3c-.2-.1-.3-.2-.2-.4l2.4-8.3c.1-.2.2-.3.4-.2l3.4 1c.7.2 1.2.6 1.5 1.1.3.5.3 1.1.1 1.8l-.4 1.3c-.2.7-.6 1.2-1.1 1.5-.5.3-1.1.3-1.8.1l-1.7-.5c-.1 0-.2 0-.2.1l-.8 2.6c-.1.2-.2.3-.4.2zm1.7-4.4l1.5.4c.3.1.5.1.7 0 .2-.1.3-.3.4-.6l.3-1.2c.1-.3.1-.5 0-.7-.1-.2-.3-.3-.6-.4l-1.5-.4c-.1 0-.2 0-.2.1l-.7 2.5c0 .2 0 .3.1.3zM279.3 612.9l-2.4 8.3c-.1.2-.2.3-.4.2l-1.2-.3c-.2-.1-.3-.2-.2-.4l2.4-8.3c.1-.2.2-.3.4-.2l1.2.3c.2.1.3.2.2.4zM279.6 622.3l-1.3-.4c-.2 0-.2-.2-.1-.3l4.6-7.6c.1-.2.3-.2.5-.2l1.8.5c.2.1.3.2.3.4l-.2 8.9c0 .2-.1.3-.2.2l-1.3-.4c-.1 0-.2-.1-.2-.1v-.2l.1-1.6-2.7-.8-.8 1.4c-.1.1-.1.2-.2.2h-.3zm4.1-6.6l-2.1 3.7 2 .6.1-4.3zM287.8 624.6l-1.1-.3c-.2-.1-.3-.2-.2-.4l2.4-8.3c.1-.2.2-.3.4-.2l1 .3c.2.1.3.2.3.3l1.3 6h.1l1.5-5.1c.1-.2.2-.3.4-.2l1.1.3c.2.1.3.2.2.4l-2.4 8.3c-.1.2-.2.3-.4.2l-1-.3c-.2-.1-.3-.2-.4-.4l-1.3-5.9h-.1l-1.5 5.1c0 .2-.1.3-.3.2zm5.4-10.9l1.3.4c.1 0 .2.1.2.1 0 .1 0 .1-.1.2l-1.5 1c-.1.1-.3.1-.4.1l-.9-.3c-.2-.1-.2-.2-.1-.3l1-1c.1-.2.3-.2.5-.2zM294.8 624.3l.1-.3c.1-.2.2-.3.4-.2l1.2.3c.2.1.3.2.2.4v.1c-.1.3-.1.6 0 .8.1.2.3.3.7.4l.6.2c.4.1.6.1.8 0 .2-.1.3-.3.4-.7v-.2c.1-.3 0-.5-.1-.7-.2-.2-.4-.4-.7-.5-.3-.1-.6-.3-1-.5s-.7-.4-1-.6c-.3-.2-.5-.5-.6-1-.1-.4-.1-.9.1-1.5l.1-.5c.2-.7.6-1.2 1.1-1.5.5-.3 1.1-.3 1.9-.1l1.4.4c.7.2 1.2.6 1.5 1.1.3.5.3 1.1.1 1.8l-.1.3c-.1.2-.2.3-.4.2l-1.2-.3c-.2-.1-.3-.2-.2-.4v-.1c.1-.4.1-.6 0-.8-.1-.2-.3-.3-.7-.4h-.4c-.4-.1-.6-.1-.8 0-.2.1-.3.4-.4.8l-.1.3c-.1.4.2.8.9 1.1.8.3 1.4.6 1.9 1.1.3.2.5.6.6 1 .1.4.1.9-.1 1.4l-.1.5c-.2.7-.6 1.2-1.1 1.5-.5.3-1.1.3-1.8.1l-1.5-.4c-.7-.2-1.2-.6-1.5-1.1-.4-.7-.4-1.3-.2-2zM303.3 629.1l-1.2-.3c-.2-.1-.3-.2-.2-.4l2.4-8.3c.1-.2.2-.3.4-.2l1.2.3c.2.1.3.2.2.4l-1.1 3.9c.1-.2.4-.4.7-.7l3-2.5c.2-.2.4-.2.6-.1l1.3.4c.1 0 .2.1.2.1 0 .1 0 .1-.1.2l-3.7 2.9 1.6 5.4v.3c-.1 0-.2.1-.3 0l-1-.3c-.3-.1-.5-.3-.6-.5l-1.1-4-1.2.8-.7 2.4c-.1.2-.3.3-.4.2zM313.8 622.9l-2.4 8.3c-.1.2-.2.3-.4.2l-1.2-.3c-.2-.1-.3-.2-.2-.4l2.4-8.3c.1-.2.2-.3.4-.2l1.2.3c.2.1.2.2.2.4zM317.9 633.4l-4.5-1.3c-.2-.1-.3-.2-.2-.4l2.4-8.3c.1-.2.2-.3.4-.2l4.5 1.3c.2.1.2.2.2.4l-.3.9c-.1.2-.2.3-.4.2l-2.9-.8c-.1 0-.2 0-.2.1l-.5 1.8c0 .1 0 .2.1.2l2.4.7c.2.1.3.2.2.4l-.3.9c-.1.2-.2.3-.4.2l-2.4-.7c-.1 0-.2 0-.2.1l-.6 1.9c0 .1 0 .2.1.2l2.9.8c.2.1.2.2.2.4l-.3.9c.1.3 0 .4-.2.3zM323.3 635l-1.5-.4c-.7-.2-1.2-.6-1.5-1.1-.3-.5-.3-1.1-.1-1.8l1.3-4.4c.2-.7.6-1.2 1.1-1.5.5-.3 1.1-.3 1.8-.1l1.5.4c.7.2 1.2.6 1.5 1.1.3.5.3 1.1.1 1.8l-.1.4c-.1.2-.2.3-.4.2l-1.2-.3c-.2-.1-.3-.2-.2-.4l.1-.3c.1-.3.1-.5 0-.7-.1-.2-.3-.3-.6-.4l-.9-.3c-.3-.1-.5-.1-.7 0-.2.1-.3.3-.4.6l-1.2 4.2c-.1.3-.1.5 0 .7.1.2.3.3.6.4l.9.3c.3.1.5.1.7 0 .2-.1.3-.3.4-.6l.3-.9c0-.1 0-.2-.1-.2l-.8-.2c-.2-.1-.3-.2-.2-.4l.3-.9c.1-.2.2-.3.4-.2l2.4.7c.2.1.3.2.2.4l-.7 2.3c-.2.7-.6 1.2-1.1 1.5-.6.3-1.2.3-1.9.1zM330.9 637.2l-1.5-.4c-.7-.2-1.2-.6-1.5-1.1-.3-.5-.3-1.1-.1-1.8l1.3-4.4c.2-.7.6-1.2 1.1-1.5.5-.3 1.1-.3 1.8-.1l1.5.4c.7.2 1.2.6 1.5 1.1.3.5.3 1.1.1 1.8l-1.3 4.4c-.2.7-.6 1.2-1.1 1.5-.5.3-1.1.3-1.8.1zm-.8-1.9l1 .3c.3.1.5.1.7 0 .2-.1.3-.3.4-.6l1.2-4.2c.1-.3.1-.5 0-.7-.1-.2-.3-.3-.6-.4l-1-.3c-.3-.1-.5-.1-.7 0-.2.1-.3.3-.4.6l-1.2 4.2c-.1.3-.1.5 0 .7.1.2.3.3.6.4z"/></g><g><path class="st7" d="M135 337.6l8.5-1.1c.2 0 .3.1.3.3l.4 3.4c.1.7 0 1.4-.4 1.8-.3.5-.9.7-1.6.8l-.6.1c-.8.1-1.4-.2-1.7-.9 0 .4-.1.7-.3 1-.2.3-.6.4-1 .5l-.9.1c-.7.1-1.3 0-1.8-.4-.4-.4-.7-.9-.8-1.6l-.5-3.6c.1-.3.2-.4.4-.4zm1.5 1.8l.2 1.6c0 .3.1.5.3.7.1.1.4.2.7.1l.8-.1c.3 0 .5-.1.6-.3.1-.2.1-.4.1-.7l-.2-1.6c0-.1-.1-.1-.2-.1l-2.1.3c-.2-.1-.2 0-.2.1zm3.9-.5l.2 1.4c0 .3.1.5.3.6.1.1.4.2.7.1l.6-.1c.3 0 .5-.1.6-.3.1-.2.1-.4.1-.7l-.2-1.5c0-.1-.1-.1-.2-.1l-1.9.2c-.2.2-.2.3-.2.4zM144.8 346.2l-8.5 1.1c-.2 0-.3-.1-.3-.3l-.2-1.2c0-.2.1-.3.3-.3l8.5-1.1c.2 0 .3.1.3.3l.2 1.2c0 .2-.1.3-.3.3zM136.9 354.2l-.6-4.6c0-.2.1-.3.3-.3l8.5-1.1c.2 0 .3.1.3.3l.6 4.6c0 .2-.1.3-.3.3l-1 .1c-.2 0-.3-.1-.3-.2l-.4-3c0-.1-.1-.2-.2-.1l-1.8.2c-.1 0-.1.1-.1.2l.3 2.4c0 .2-.1.3-.3.3l-1 .1c-.2 0-.3-.1-.3-.3l-.3-2.4c0-.1-.1-.2-.2-.1l-2 .3c-.1 0-.1.1-.1.2l.4 3c0 .2-.1.3-.3.3l-1 .1c-.1 0-.2-.1-.2-.3zM137.4 356l8.5-1.1c.2 0 .3.1.3.3l.4 3.5c.1.7 0 1.3-.4 1.8s-.9.7-1.6.8l-4.5.6c-.7.1-1.3 0-1.8-.4s-.7-.9-.8-1.6l-.4-3.5c0-.2.1-.3.3-.4zm1.5 1.8l.2 1.5c0 .3.1.5.3.6.1.1.4.1.7.1l4.3-.6c.3 0 .5-.1.6-.3.1-.1.1-.4.1-.7l-.2-1.5c0-.1-.1-.2-.2-.1l-5.7.7c-.1.2-.1.2-.1.3zM138.3 365.5l-.2-1.2c0-.2.1-.3.3-.3l8.5-1.1c.2 0 .3.1.3.3l.4 3.4c.1.7 0 1.3-.4 1.8s-.9.8-1.6.8l-1.1.1c-1.1.1-1.8-.2-2.3-1h-.1l-3 1.9c-.2.1-.3 0-.4-.2l-.1-1.2v-.4c0-.1.1-.2.2-.2l2.9-1.8-.1-1c0-.1-.1-.2-.2-.1l-2.9.4c-.1 0-.2-.1-.2-.2zm4.9-.2l.2 1.4c0 .3.1.5.3.6.1.1.4.2.6.1l1.1-.1c.3 0 .5-.1.6-.3.1-.2.2-.4.1-.7l-.2-1.4c0-.1-.1-.1-.2-.1l-2.4.3c-.1 0-.1.1-.1.2zM139.6 375.5l-.2-1.6c-.1-.7 0-1.4.4-1.8.3-.5.9-.7 1.6-.8l4.5-.6c.7-.1 1.3 0 1.8.4s.7.9.8 1.7l.2 1.6c.1.7 0 1.4-.4 1.8-.3.5-.9.7-1.6.8l-4.5.6c-.7.1-1.3 0-1.8-.4-.4-.4-.7-.9-.8-1.7zm1.4-1.5l.1 1c0 .3.1.5.3.6.1.1.4.1.7.1l4.3-.6c.3 0 .5-.1.6-.3.1-.1.1-.4.1-.7l-.1-1c0-.3-.1-.5-.3-.6-.1-.1-.4-.1-.7-.1l-4.3.6c-.3 0-.5.1-.6.3-.1.2-.2.4-.1.7zM140.3 381l-.2-1.2c0-.2.1-.3.3-.3l8.5-1.1c.2 0 .3.1.3.3l.1 1.1c0 .2 0 .3-.1.4l-5 3.6v.1l5.3-.7c.2 0 .3.1.3.3l.2 1.2c0 .2-.1.3-.3.3l-8.5 1.1c-.2 0-.3-.1-.3-.3l-.1-1c0-.2 0-.4.2-.5l4.9-3.5v-.1l-5.3.7c-.2-.1-.3-.2-.3-.4zM141.4 389.4l-.2-1.2c0-.2.1-.3.3-.3l8.5-1.1c.2 0 .3.1.3.3l.2 1.2c0 .2-.1.3-.3.3l-4.1.5c.2 0 .5.2.9.3l3.4 1.8c.2.1.3.3.4.5l.2 1.4c0 .1 0 .2-.1.2h-.2l-4.1-2.2-4.3 3.6c-.1.1-.2.1-.3.1-.1 0-.1-.1-.1-.3l-.1-1c0-.3 0-.6.2-.7l3.2-2.6-1.2-.8-2.4.3c-.1 0-.2-.1-.2-.3zM142.3 396.8l-.2-1.4c0-.2.1-.2.3-.2l8.8 1.2c.2 0 .3.2.4.4l.2 1.9c0 .2-.1.4-.2.5l-8.3 3.3c-.2.1-.3 0-.3-.1l-.2-1.4v-.2s.1-.1.2-.1l1.5-.6-.4-2.8-1.6-.2c-.1 0-.2 0-.2-.1v-.2zm7.7 1.1l-4.2-.5.3 2.1 3.9-1.6z"/></g><g><path class="st7" d="M259.8 387.7l-.1-1.6c-.1-.7.1-1.3.4-1.8.4-.4.9-.7 1.7-.8l4.5-.4c.7-.1 1.3.1 1.8.5.4.4.7.9.8 1.7l.1 1.6c.1.7-.1 1.3-.4 1.8-.4.5-.9.7-1.7.8l-.7.1c-.2 0-.3-.1-.3-.3l-.1-1.2c0-.2.1-.3.3-.3l.6-.1c.3 0 .5-.1.6-.3.1-.1.2-.4.1-.7l-.1-1c0-.3-.1-.5-.3-.6-.1-.1-.4-.2-.7-.1l-4.4.4c-.3 0-.5.1-.6.3-.1.1-.2.4-.1.7l.1 1c0 .3.1.5.3.6.1.1.4.2.7.1l.6-.1c.2 0 .3.1.3.3l.1 1.2c0 .2-.1.3-.3.3l-.7.1c-.7.1-1.3-.1-1.8-.5-.4-.4-.6-.9-.7-1.7zM260.2 392.6l-.1-1.4c0-.2.1-.2.3-.2l8.8 1.4c.2 0 .3.2.3.4l.2 1.9c0 .2-.1.4-.3.5l-8.4 3.1c-.2.1-.3 0-.3-.1l-.1-1.4v-.2s.1-.1.2-.1l1.5-.5-.3-2.8-1.6-.2c-.1 0-.2 0-.2-.1.1-.2.1-.2 0-.3zm7.7 1.3l-4.2-.6.2 2.1 4-1.5zM263.2 399.1h.3c.2 0 .3.1.3.3l.1 1.2c0 .2-.1.3-.3.3h-.1c-.4 0-.6.1-.7.3-.1.2-.2.4-.1.8l.1.7c0 .4.1.6.3.8.2.1.4.2.8.1h.2c.3 0 .5-.2.6-.4.1-.2.2-.5.2-.9 0-.3 0-.7.1-1.1 0-.4.1-.8.2-1.1.1-.3.3-.6.7-.9.4-.3.8-.4 1.4-.5h.5c.7-.1 1.3.1 1.8.5.4.4.7.9.8 1.7l.1 1.4c.1.7-.1 1.4-.4 1.8-.4.5-.9.7-1.7.8h-.3c-.2 0-.3-.1-.3-.3l-.1-1.2c0-.2.1-.3.3-.3h.1c.4 0 .6-.1.7-.3.1-.2.2-.4.1-.8l-.1-.6c0-.4-.1-.6-.3-.8-.2-.1-.5-.2-.9-.1h-.3c-.4 0-.7.5-.7 1.2 0 .8-.1 1.5-.3 2.2-.1.3-.3.6-.7.9-.3.3-.8.4-1.4.5h-.5c-.7.1-1.3-.1-1.8-.5-.4-.4-.7-.9-.8-1.7l-.1-1.6c-.1-.7.1-1.3.4-1.8.5-.2 1.1-.5 1.8-.6zM270.7 408.3l-8.6.8c-.2 0-.3-.1-.3-.3l-.1-1.2c0-.2.1-.3.3-.3l8.6-.8c.2 0 .3.1.3.3l.1 1.2c0 .2-.1.3-.3.3zM262.1 412.5l-.1-1.2c0-.2.1-.3.3-.3l8.6-.8c.2 0 .3.1.3.3l.1 1.1c0 .2 0 .3-.2.4l-5.1 3.4v.1l5.3-.5c.2 0 .3.1.3.3l.1 1.2c0 .2-.1.3-.3.3l-8.6.8c-.2 0-.3-.1-.3-.3l-.1-1c0-.2.1-.4.2-.5l5-3.4v-.1l-5.3.5s-.2-.1-.2-.3zM263.1 423.2l-.2-1.6c-.1-.8.1-1.3.4-1.8.4-.4.9-.7 1.7-.8l4.5-.4c.7-.1 1.3.1 1.8.5.4.4.7.9.8 1.7l.2 1.6c.1.7-.1 1.3-.4 1.8-.4.4-.9.7-1.7.8l-4.5.4c-.8.1-1.3-.1-1.8-.5-.4-.4-.7-.9-.8-1.7zm1.5-1.4l.1 1c0 .3.1.5.3.6.1.1.4.2.7.1l4.4-.4c.3 0 .5-.1.6-.3.1-.1.2-.4.1-.7l-.1-1c0-.3-.1-.5-.3-.6-.1-.1-.4-.2-.7-.1l-4.4.4c-.3 0-.5.1-.6.2-.1.2-.2.5-.1.8z"/></g><g><path class="st7" d="M590.7 404.7l.1 1.2c0 .2-.1.3-.3.3l-6.6.6c-.7.1-1.3-.1-1.8-.4-.4-.4-.7-.9-.8-1.7l-.2-1.6c-.1-.8.1-1.4.4-1.8.4-.4.9-.7 1.7-.8l6.5-.6c.2 0 .3.1.3.3l.1 1.2c0 .2-.1.3-.3.3l-6.5.6c-.3 0-.5.1-.6.3-.1.1-.2.4-.1.7l.1 1c0 .3.1.5.3.6.1.1.4.2.7.1l6.5-.6c.3 0 .4.1.5.3zM582.4 414.4l-.5-4.7c0-.2.1-.3.3-.3l3.7-.4-.6-.8c0-.1-.1-.1 0-.2 0-.1.1-.1.2-.1l.9-.1c.2 0 .3.1.5.2l.6.8 3.3-.3c.2 0 .3.1.3.3l.1 1.2c0 .2-.1.3-.3.3l-2.2.2.8 1.1c.1.2.1.3-.1.3l-1 .1c-.2 0-.4-.1-.5-.2l-.8-1.1-3.3.3c-.1 0-.2.1-.1.2l.3 3c0 .2-.1.3-.3.3l-1 .1c-.2.1-.3 0-.3-.2zM582.6 417.2l-.1-1.4c0-.2.1-.2.3-.2l8.8 1.4c.2 0 .3.2.3.4l.2 1.9c0 .2-.1.4-.3.5l-8.3 3.1c-.2.1-.3 0-.3-.1l-.1-1.4v-.2s.1-.1.2-.1l1.5-.6-.3-2.8-1.6-.2c-.1 0-.2 0-.2-.1 0 0-.1-.1-.1-.2zm7.7 1.3l-4.2-.6.2 2.1 4-1.5zM583.5 425.7l-.1-1.2c0-.2.1-.3.3-.3l8.6-.8c.2 0 .3.1.3.3l.1 1.1c0 .2 0 .3-.2.4l-5.1 3.4v.1l5.3-.5c.2 0 .3.1.3.3l.1 1.2c0 .2-.1.3-.3.3l-8.6.8c-.2 0-.3-.1-.3-.3l-.1-1c0-.2.1-.4.2-.5l5-3.4v-.1l-5.3.5c-.1 0-.2-.1-.2-.3zm12.1.9l.1 1.4c0 .1 0 .2-.1.2h-.2l-1.5-1c-.1-.1-.2-.2-.2-.4l-.1-.9c0-.2.1-.2.3-.2l1.3.5c.3.1.4.2.4.4zM586.5 432.1h.3c.2 0 .3.1.3.3l.1 1.2c0 .2-.1.3-.3.3h-.1c-.4 0-.6.1-.7.3-.1.2-.2.4-.1.8l.1.7c0 .4.1.6.3.8.2.1.4.2.8.1h.2c.3 0 .5-.2.6-.4.1-.2.2-.5.2-.9 0-.3 0-.7.1-1.1 0-.4.1-.8.2-1.1.1-.3.3-.6.7-.9.4-.3.8-.4 1.4-.5l.5-.1c.7-.1 1.3.1 1.8.5s.7.9.8 1.7l.1 1.4c.1.7-.1 1.4-.4 1.8-.4.5-.9.7-1.7.8h-.3c-.2 0-.3-.1-.3-.3l-.1-1.2c0-.2.1-.3.3-.3h.1c.4 0 .6-.1.7-.3.1-.2.2-.4.1-.8l-.1-.6c0-.4-.1-.6-.3-.8-.2-.1-.5-.2-.9-.1h-.3c-.4 0-.7.5-.7 1.2 0 .8-.1 1.5-.3 2.2-.1.3-.3.6-.7.9-.3.3-.8.4-1.4.5h-.5c-.7.1-1.3-.1-1.8-.5s-.7-.9-.8-1.7l-.2-1.6c-.1-.7.1-1.3.4-1.8.6-.2 1.1-.4 1.9-.5zM585.1 441.7l-.1-1.2c0-.2.1-.3.3-.3l8.6-.8c.2 0 .3.1.3.3l.1 1.2c0 .2-.1.3-.3.3l-4.1.4c.2.1.5.2.9.4l3.4 1.9c.2.1.3.3.4.5l.1 1.4c0 .1 0 .2-.1.2s-.1 0-.2-.1l-4-2.3-4.4 3.4c-.1.1-.2.1-.3.1-.1 0-.1-.1-.1-.3l-.1-1c0-.3 0-.6.2-.7l3.3-2.5-1.1-.8-2.4.2c-.3 0-.4-.1-.4-.3zM585.8 449.1l-.1-1.4c0-.2.1-.2.3-.2l8.8 1.4c.2 0 .3.2.3.4l.2 1.9c0 .2-.1.4-.3.5l-8.3 3.1c-.2.1-.3 0-.3-.1l-.1-1.4v-.2s.1-.1.2-.1l1.5-.6-.3-2.8-1.6-.2c-.1 0-.2 0-.2-.1-.1 0-.1-.1-.1-.2zm7.7 1.4l-4.2-.6.2 2.1 4-1.5z"/></g><g><path class="st7" d="M225.8 92.2l-1.5.3c-.7.1-1.4 0-1.8-.3-.5-.3-.8-.8-.9-1.6l-.8-4.5c-.1-.7 0-1.3.3-1.8s.9-.8 1.6-.9l1.5-.3c.7-.1 1.3 0 1.8.3s.8.9.9 1.6l.1.4c0 .2 0 .3-.2.4l-1.2.2c-.2 0-.3 0-.4-.3l-.1-.3c-.1-.3-.2-.5-.3-.6-.1-.1-.4-.1-.7-.1l-.9.2c-.3.1-.5.2-.6.3-.1.1-.1.4-.1.7l.8 4.3c.1.3.2.5.3.6.2.1.4.1.7.1l.9-.2c.3-.1.5-.2.6-.3.1-.1.1-.4.1-.7l-.2-.9c0-.1-.1-.1-.2-.1l-.8.2c-.2 0-.3 0-.4-.2l-.2-1c0-.2 0-.3.2-.4l2.5-.5c.2 0 .3 0 .4.3l.4 2.4c.1.7 0 1.3-.3 1.8-.2.4-.8.7-1.5.9zM231.3 91.1l-1.2.2c-.2 0-.3 0-.4-.2l-1.6-8.5c0-.2 0-.3.2-.4l3.4-.6c.7-.1 1.3 0 1.8.3s.8.9.9 1.6l.2 1.1c.2 1.1-.1 1.8-.9 2.3v.1l2.1 2.9c.1.2.1.3-.2.4l-1.1.2h-.4c-.1 0-.2-.1-.2-.2l-2-2.8-.9.2c-.1 0-.2.1-.1.2l.5 2.9c.2.2.1.3-.1.3zm-.4-4.8l1.4-.3c.3-.1.5-.2.6-.3.1-.2.2-.4.1-.6l-.2-1.1c-.1-.3-.2-.5-.3-.6-.2-.1-.4-.1-.7-.1l-1.4.3c-.1 0-.1.1-.1.2l.4 2.4c0 .1.1.1.2.1zM240.5 80.1l1.2-.2c.2 0 .3 0 .4.2l1.2 6.5c.1.7 0 1.3-.3 1.8s-.9.8-1.6.9l-1.6.3c-.7.1-1.4 0-1.8-.3-.5-.3-.8-.8-.9-1.6l-1.2-6.5c0-.2 0-.3.2-.4l1.2-.2c.2 0 .3 0 .4.2l1.2 6.4c.1.3.2.5.3.6.2.1.4.1.7.1l1-.2c.3-.1.5-.2.6-.3.1-.1.1-.4.1-.7l-1.2-6.4c-.2-.1-.1-.2.1-.2zM246.9 88.3l-1.2.2c-.2 0-.3 0-.4-.2l-1.6-8.5c0-.2 0-.3.2-.4l1.1-.2c.2 0 .3 0 .4.1l3.8 4.8h.1l-1-5.2c0-.2 0-.3.2-.4l1.2-.2c.2 0 .3 0 .4.2l1.6 8.5c0 .2 0 .3-.2.4l-1 .2c-.2 0-.4 0-.5-.2l-3.8-4.7h-.1l1 5.2c0 .2 0 .3-.2.4zM256.8 86.5l-2 .4c-.2 0-.3 0-.4-.2l-3.1-8.2c-.1-.2 0-.3.2-.4l1.5-.3c.2 0 .3 0 .4.2l2.1 6.8h.1l.1-7.2c0-.2.1-.3.2-.3l1.6-.3c.2 0 .3 0 .4.2l2.7 6.7h.1l-.5-7.1c0-.2.1-.3.3-.4l1.5-.3c.2 0 .3 0 .4.3v8.7c0 .2-.1.3-.3.4l-2 .4c-.2 0-.3 0-.4-.2l-2.5-6.4h-.1l-.1 6.8c0 .2 0 .3-.2.4zM265.9 84.8l-1.4.2c-.2 0-.2-.1-.2-.3l.7-8.9c0-.2.2-.3.4-.4l1.9-.3c.2 0 .4 0 .5.2l3.8 8.1c.1.2.1.3-.1.3l-1.4.2h-.2s-.1-.1-.1-.2l-.7-1.5-2.7.5-.1 1.6v.2c-.2.2-.3.2-.4.3zm.7-7.8l-.3 4.3 2.1-.4-1.8-3.9zM277.8 82.6l-4.6.9c-.2 0-.3 0-.4-.2l-1.6-8.5c0-.2 0-.3.2-.4l1.2-.2c.2 0 .3 0 .4.2l1.3 7c0 .1.1.1.2.1l3-.5c.2 0 .3.1.3.3l.2 1c0 .1 0 .3-.2.3zM279.1 82l-1.6-8.5c0-.2 0-.3.2-.4l3.5-.6c.7-.1 1.3 0 1.8.3s.8.9.9 1.6l.8 4.5c.1.7 0 1.3-.3 1.8s-.9.8-1.6.9l-3.5.6c0 .1-.1 0-.2-.2zm1.7-1.6l1.5-.3c.3-.1.5-.2.6-.3.1-.1.1-.4.1-.7l-.8-4.3c-.1-.3-.2-.5-.3-.6-.2-.1-.4-.1-.7-.1l-1.5.3c-.1 0-.1.1-.1.2l1 5.6c.1.2.1.2.2.2zM286.7 80.6l-.2-.8c-.1-.3 0-.6.1-.7l2.7-6.2v-.1l-3.4.6c-.2 0-.3 0-.3-.2l-.2-1.1c0-.2 0-.3.2-.4l5-.9c.2 0 .3 0 .3.2l.2 1.2c.1.3 0 .5-.1.8l-2.6 5.7v.1l3.6-.7c.2 0 .3 0 .3.2l.2 1.1c0 .2 0 .3-.2.4l-5.4 1c-.1.1-.2 0-.2-.2zM295.8 79.3l-1.2.2c-.2 0-.3 0-.4-.2l-1.6-8.5c0-.2 0-.3.2-.4l1.2-.2c.2 0 .3 0 .4.2l.7 4c0-.2.1-.6.3-1l1.6-3.5c.1-.2.3-.4.5-.4l1.4-.3c.1 0 .2 0 .2.1v.2l-2 4.2 3.8 4.1c.1.1.1.2.1.3 0 .1-.1.1-.2.1l-1 .2c-.3.1-.6 0-.7-.2l-2.8-3.1-.7 1.2.4 2.4c.1.4 0 .5-.2.6zM303.1 77.9l-1.4.2c-.2 0-.2-.1-.2-.3l.7-8.9c0-.2.2-.3.4-.4l1.9-.3c.2 0 .4 0 .5.2l3.8 8.1c.1.2.1.3-.1.3l-1.4.2h-.2s-.1-.1-.1-.2l-.7-1.5-2.7.5-.1 1.6v.2c-.2.3-.3.3-.4.3zm.7-7.7l-.3 4.3 2.1-.4-1.8-3.9z"/></g><g><path class="st7" d="M10.1 167.6H8.9c-.2 0-.3-.1-.3-.3v-8.6c0-.2.1-.3.3-.3h3.4c.7 0 1.3.2 1.7.6.4.4.6 1 .6 1.7v1.1c0 1.1-.4 1.8-1.3 2.1v.1l1.5 3.2c.1.2 0 .3-.2.3h-1.2c-.2 0-.3 0-.4-.1l-.2-.2-1.4-3.1h-1c-.1 0-.2.1-.2.2v2.9c.2.3.1.4-.1.4zm.4-4.9H12c.3 0 .5-.1.7-.2s.2-.3.2-.6v-1.1c0-.3-.1-.5-.2-.6-.1-.1-.4-.2-.7-.2h-1.4c-.1 0-.2.1-.2.2v2.5h.1zM20.2 167.6h-1.6c-.8 0-1.3-.2-1.7-.6-.4-.4-.6-1-.6-1.7v-4.5c0-.8.2-1.3.6-1.7.4-.4 1-.6 1.7-.6h1.6c.8 0 1.3.2 1.7.6s.6 1 .6 1.7v4.5c0 .8-.2 1.3-.6 1.7-.3.4-.9.6-1.7.6zm-1.3-1.6h1c.3 0 .5-.1.7-.2s.2-.3.2-.7v-4.4c0-.3-.1-.5-.2-.7s-.3-.2-.7-.2h-1c-.3 0-.5.1-.6.2-.1.1-.2.3-.2.7v4.4c0 .3.1.5.2.7.1.1.3.2.6.2zM25.8 167.6h-1.2c-.2 0-.3-.1-.3-.3v-8.6c0-.2.1-.3.3-.3h1.1c.2 0 .3.1.4.2L29 164v-5.3c0-.2.1-.3.3-.3h1.2c.2 0 .3.1.3.3v8.6c0 .2-.1.3-.3.3h-1c-.2 0-.4-.1-.5-.3l-2.9-5.3H26v5.3c.1.2 0 .3-.2.3zM32.7 167.3v-8.6c0-.2.1-.3.3-.3h3.5c.7 0 1.3.2 1.7.6.4.4.6 1 .6 1.7v4.5c0 .7-.2 1.3-.6 1.7-.4.4-1 .6-1.7.6H33c-.2.1-.3 0-.3-.2zm2-1.3h1.6c.3 0 .5-.1.7-.2s.2-.3.2-.7v-4.4c0-.3-.1-.5-.2-.7s-.3-.2-.7-.2h-1.6c-.1 0-.2.1-.2.2v5.7c0 .2.1.3.2.3zM44.4 167.6h-1.6c-.8 0-1.3-.2-1.7-.6-.4-.4-.6-1-.6-1.7v-4.5c0-.8.2-1.3.6-1.7.4-.4 1-.6 1.7-.6h1.6c.8 0 1.3.2 1.7.6.4.4.6 1 .6 1.7v4.5c0 .8-.2 1.3-.6 1.7-.3.4-.9.6-1.7.6zm-1.3-1.6h1c.3 0 .5-.1.7-.2.1-.1.2-.3.2-.7v-4.4c0-.3-.1-.5-.2-.7-.1-.1-.3-.2-.7-.2h-1c-.3 0-.5.1-.6.2-.1.1-.2.3-.2.7v4.4c0 .3.1.5.2.7.1.1.3.2.6.2zM55.8 158.4H57c.2 0 .3.1.3.3v6.6c0 .7-.2 1.3-.6 1.7-.4.4-1 .6-1.7.6h-1.4c-.8 0-1.3-.2-1.7-.6-.4-.4-.6-1-.6-1.7V164c0-.2.1-.3.3-.3h1.2c.2 0 .3.1.3.3v1.3c0 .3.1.5.2.7.1.1.3.2.6.2h.8c.3 0 .5-.1.6-.2.1-.1.2-.3.2-.7v-6.5c0-.3.1-.4.3-.4zM60.1 167.6h-1.4c-.2 0-.2-.1-.2-.3l2.3-8.6c.1-.2.2-.3.4-.3h1.9c.2 0 .4.1.4.3l2.3 8.6c.1.2 0 .3-.2.3h-1.4c-.1 0-.2 0-.2-.1 0 0-.1-.1-.1-.2l-.4-1.6h-2.8l-.4 1.6c0 .1-.1.2-.1.2.1 0 0 .1-.1.1zm2.1-7.5l-1 4.1h2.1l-1.1-4.1zM68.6 167.6h-1.2c-.2 0-.3-.1-.3-.3v-8.6c0-.2.1-.3.3-.3h1.1c.2 0 .3.1.4.2l2.9 5.4h.1v-5.3c0-.2.1-.3.3-.3h1.2c.2 0 .3.1.3.3v8.6c0 .2-.1.3-.3.3h-1c-.2 0-.4-.1-.5-.3L69 162h-.1v5.3c0 .2-.1.3-.3.3zM76.5 167.6h-1.4c-.2 0-.2-.1-.2-.3l2.3-8.6c.1-.2.2-.3.4-.3h1.9c.2 0 .4.1.4.3l2.3 8.6c.1.2 0 .3-.2.3h-1.4c-.1 0-.2 0-.2-.1 0 0-.1-.1-.1-.2l-.4-1.6h-2.8l-.4 1.6c0 .1-.1.2-.1.2s0 .1-.1.1zm2-7.5l-1 4.1h2.1l-1.1-4.1zM88.1 167.6h-1.2c-.2 0-.3-.1-.3-.3v-8.6c0-.2.1-.3.3-.3H88c.2 0 .3.1.4.2l2.9 5.4h.1v-5.3c0-.2.1-.3.3-.3h1.2c.2 0 .3.1.3.3v8.6c0 .2-.1.3-.3.3h-1c-.2 0-.4-.1-.5-.3l-2.9-5.3h-.1v5.3c0 .2-.1.3-.3.3zM98.8 167.6h-1.6c-.8 0-1.3-.2-1.7-.6-.4-.4-.6-1-.6-1.7v-4.5c0-.8.2-1.3.6-1.7.4-.4 1-.6 1.7-.6h1.6c.8 0 1.3.2 1.7.6s.6 1 .6 1.7v4.5c0 .8-.2 1.3-.6 1.7-.3.4-.9.6-1.7.6zm-1.3-1.6h1c.3 0 .5-.1.7-.2s.2-.3.2-.7v-4.4c0-.3-.1-.5-.2-.7s-.3-.2-.7-.2h-1c-.3 0-.5.1-.6.2-.1.1-.2.3-.2.7v4.4c0 .3.1.5.2.7.1.1.3.2.6.2zM106.1 167.6h-2c-.2 0-.3-.1-.4-.3l-1.5-8.6c0-.2.1-.3.3-.3h1.5c.2 0 .3.1.3.3l.8 7.1h.1l1.4-7.1c0-.2.1-.3.3-.3h1.6c.2 0 .3.1.3.2l1.4 7.1h.1l.8-7c0-.2.1-.3.3-.3h1.5c.2 0 .3.1.3.3l-1.5 8.6c0 .2-.1.3-.3.3h-2c-.2 0-.3-.1-.3-.3l-1.3-6.7h-.1l-1.3 6.7c0 .2-.1.3-.3.3zM115.4 167.6H114c-.2 0-.2-.1-.2-.3l2.3-8.6c.1-.2.2-.3.4-.3h1.9c.2 0 .4.1.4.3l2.3 8.6c.1.2 0 .3-.2.3h-1.4c-.1 0-.2 0-.2-.1 0 0-.1-.1-.1-.2l-.4-1.6H116l-.4 1.6c0 .1-.1.2-.1.2.1 0 0 .1-.1.1zm2.1-7.5l-1 4.1h2.1l-1.1-4.1zM124 167.6h-1.2c-.2 0-.3-.1-.3-.3v-8.6c0-.2.1-.3.3-.3h1.2c.2 0 .3.1.3.3v4.1c.1-.2.2-.5.4-.9l2.2-3.2c.1-.2.3-.3.6-.3h1.4c.1 0 .2 0 .2.1s0 .1-.1.2l-2.7 3.8 3 4.8c.1.1.1.2 0 .3 0 .1-.1.1-.3.1h-1c-.3 0-.6-.1-.7-.3l-2.2-3.5-.9 1.1v2.4c.1.1 0 .2-.2.2zM131.4 167.6H130c-.2 0-.2-.1-.2-.3l2.3-8.6c.1-.2.2-.3.4-.3h1.9c.2 0 .4.1.4.3l2.3 8.6c.1.2 0 .3-.2.3h-1.4c-.1 0-.2 0-.2-.1 0 0-.1-.1-.1-.2l-.4-1.6H132l-.4 1.6c0 .1-.1.2-.1.2.1 0 0 .1-.1.1zm2.1-7.5l-1 4.1h2.1l-1.1-4.1zM31.8 175.5H33c.2 0 .3.1.3.3v6.6c0 .7-.2 1.3-.6 1.7-.4.4-1 .6-1.7.6h-1.4c-.8 0-1.3-.2-1.7-.6-.4-.4-.6-1-.6-1.7v-1.3c0-.2.1-.3.3-.3h1.2c.2 0 .3.1.3.3v1.3c0 .3.1.5.2.7s.3.2.6.2h.8c.3 0 .5-.1.6-.2.1-.1.2-.3.2-.7v-6.5c-.1-.3 0-.4.3-.4zM40 184.8h-4.7c-.2 0-.3-.1-.3-.3v-8.6c0-.2.1-.3.3-.3H40c.2 0 .3.1.3.3v1c0 .2-.1.3-.3.3h-3c-.1 0-.2.1-.2.2v1.9c0 .1.1.2.2.2h2.4c.2 0 .3.1.3.3v1c0 .2-.1.3-.3.3H37c-.1 0-.2.1-.2.2v2c0 .1.1.2.2.2h3c.2 0 .3.1.3.3v1c0-.1-.1 0-.3 0zM41.7 184.5v-.9c0-.3.1-.5.2-.7l3.8-5.6v-.1h-3.4c-.2 0-.3-.1-.3-.3v-1.1c0-.2.1-.3.3-.3h5.1c.2 0 .3.1.3.3v1.2c0 .3-.1.5-.2.7l-3.6 5.2v.1h3.6c.2 0 .3.1.3.3v1.1c0 .2-.1.3-.3.3H42c-.2.1-.3 0-.3-.2zM51.3 175.8v8.6c0 .2-.1.3-.3.3h-1.2c-.2 0-.3-.1-.3-.3v-8.6c0-.2.1-.3.3-.3H51c.2 0 .3.1.3.3zM57 184.8h-1.6c-.8 0-1.3-.2-1.7-.6-.4-.4-.6-1-.6-1.7V178c0-.8.2-1.3.6-1.7.4-.4 1-.6 1.7-.6H57c.8 0 1.3.2 1.7.6.4.4.6 1 .6 1.7v4.5c0 .8-.2 1.3-.6 1.7-.3.4-.9.6-1.7.6zm-1.3-1.6h1c.3 0 .5-.1.7-.2.1-.1.2-.3.2-.7V178c0-.3-.1-.5-.2-.7-.1-.1-.3-.2-.7-.2h-1c-.3 0-.5.1-.6.2-.1.1-.2.3-.2.7v4.4c0 .3.1.5.2.7.1 0 .3.1.6.1zM62.6 184.8h-1.2c-.2 0-.3-.1-.3-.3v-8.6c0-.2.1-.3.3-.3h3.4c.7 0 1.3.2 1.7.6.4.4.6 1 .6 1.7v1.1c0 1.1-.4 1.8-1.3 2.1v.1l1.5 3.2c.1.2 0 .3-.2.3H66c-.2 0-.3 0-.4-.1-.1 0-.1-.1-.2-.2l-1.4-3.1h-1c-.1 0-.2.1-.2.2v2.9c.1.3 0 .4-.2.4zm.5-4.9h1.4c.3 0 .5-.1.7-.2.1-.1.2-.3.2-.6V178c0-.3-.1-.5-.2-.6-.1-.1-.4-.2-.7-.2h-1.4c-.1 0-.2.1-.2.2v2.5c0-.1.1 0 .2 0zM69.9 184.8h-1.4c-.2 0-.2-.1-.2-.3l2.3-8.6c.1-.2.2-.3.4-.3h2c.2 0 .4.1.4.3l2.3 8.6c.1.2 0 .3-.2.3h-1.4c-.1 0-.2 0-.2-.1 0 0-.1-.1-.1-.2l-.4-1.6h-2.8l-.4 1.6c0 .1-.1.2-.1.2s-.1.1-.2.1zm2.1-7.5l-1 4.1h2.1l-1.1-4.1zM78.4 184.8h-1.2c-.2 0-.3-.1-.3-.3v-8.6c0-.2.1-.3.3-.3h1.1c.2 0 .3.1.4.2l2.9 5.4h.1v-5.3c0-.2.1-.3.3-.3h1.2c.2 0 .3.1.3.3v8.6c0 .2-.1.3-.3.3h-1c-.2 0-.4-.1-.5-.3l-2.9-5.3h-.1v5.3c0 .2-.1.3-.3.3zm2.2-12H82c.1 0 .2 0 .2.1s0 .1-.1.2l-1.2 1.4c-.1.1-.2.2-.4.2h-.9c-.2 0-.2-.1-.1-.3l.6-1.3c.1-.2.3-.3.5-.3zM85.1 182.4v-.3c0-.2.1-.3.3-.3h1.2c.2 0 .3.1.3.3v.1c0 .4.1.6.2.7.1.1.4.2.8.2h.7c.4 0 .6-.1.8-.2.1-.1.2-.4.2-.8v-.1c0-.3-.1-.5-.3-.6-.2-.1-.5-.2-.8-.3-.3 0-.7-.1-1.1-.2-.4-.1-.7-.2-1.1-.3-.3-.1-.6-.4-.8-.8-.2-.4-.3-.9-.3-1.5v-.5c0-.7.2-1.3.6-1.7.4-.4 1-.6 1.7-.6h1.4c.8 0 1.3.2 1.8.6.4.4.6 1 .6 1.7v.3c0 .2-.1.3-.3.3h-1.2c-.2 0-.3-.1-.3-.3v-.1c0-.4-.1-.6-.2-.8-.1-.1-.4-.2-.8-.2h-.6c-.4 0-.7.1-.8.2s-.2.4-.2.9v.3c0 .4.4.7 1.2.8.8.1 1.5.2 2.2.5.3.1.6.4.8.8.2.4.3.8.3 1.4v.5c0 .7-.2 1.3-.6 1.7-.4.4-1 .6-1.7.6h-1.6c-.7 0-1.3-.2-1.7-.6-.5-.4-.7-.9-.7-1.7zM94.9 175.8v8.6c0 .2-.1.3-.3.3h-1.2c-.2 0-.3-.1-.3-.3v-8.6c0-.2.1-.3.3-.3h1.2c.2 0 .3.1.3.3zM101.8 184.8h-4.7c-.2 0-.3-.1-.3-.3v-8.6c0-.2.1-.3.3-.3h4.7c.2 0 .3.1.3.3v1c0 .2-.1.3-.3.3h-3c-.1 0-.2.1-.2.2v1.9c0 .1.1.2.2.2h2.4c.2 0 .3.1.3.3v1c0 .2-.1.3-.3.3h-2.4c-.1 0-.2.1-.2.2v2c0 .1.1.2.2.2h3c.2 0 .3.1.3.3v1c0-.1-.1 0-.3 0zM107.4 184.8h-1.5c-.8 0-1.3-.2-1.7-.6-.4-.4-.6-1-.6-1.7V178c0-.8.2-1.3.6-1.7.4-.4 1-.6 1.7-.6h1.5c.7 0 1.3.2 1.7.6.4.4.6 1 .6 1.7v.4c0 .2-.1.3-.3.3h-1.2c-.2 0-.3-.1-.3-.3v-.4c0-.3-.1-.5-.2-.7-.1-.1-.3-.2-.6-.2h-.9c-.3 0-.5.1-.6.2-.1.1-.2.3-.2.7v4.4c0 .3.1.5.2.7.1.1.3.2.6.2h.9c.3 0 .5-.1.6-.2.1-.1.2-.3.2-.7v-.9c0-.1-.1-.2-.2-.2h-.7c-.2 0-.3-.1-.3-.3v-1c0-.2.1-.3.3-.3h2.5c.2 0 .3.1.3.3v2.4c0 .7-.2 1.3-.6 1.7-.4.5-1 .7-1.8.7zM115.3 184.8h-1.6c-.8 0-1.3-.2-1.7-.6-.4-.4-.6-1-.6-1.7V178c0-.8.2-1.3.6-1.7.4-.4 1-.6 1.7-.6h1.6c.8 0 1.3.2 1.7.6.4.4.6 1 .6 1.7v4.5c0 .8-.2 1.3-.6 1.7-.3.4-.9.6-1.7.6zm-1.3-1.6h1c.3 0 .5-.1.7-.2s.2-.3.2-.7V178c0-.3-.1-.5-.2-.7-.1-.1-.3-.2-.7-.2h-1c-.3 0-.5.1-.6.2-.1.1-.2.3-.2.7v4.4c0 .3.1.5.2.7.1 0 .3.1.6.1z"/></g><g><path class="st7" d="M377.9 410.2l-1.6.2c-.8.1-1.4-.1-1.8-.4-.4-.4-.7-.9-.8-1.7l-.4-4.5c-.1-.8.1-1.3.4-1.8.4-.4.9-.7 1.7-.8l1.6-.2c.7-.1 1.3.1 1.8.4.5.4.7.9.8 1.7l.1.7c0 .2-.1.3-.3.3l-1.2.1c-.2 0-.3-.1-.3-.3l-.1-.6c0-.3-.1-.5-.3-.6-.1-.1-.4-.2-.7-.1l-1 .1c-.3 0-.5.1-.6.3-.1.1-.2.4-.1.7l.4 4.4c0 .3.1.5.3.6.1.1.4.2.7.1l1-.1c.3 0 .5-.1.6-.3.1-.1.2-.4.1-.7l-.1-.6c0-.2.1-.3.3-.3l1.2-.1c.2 0 .3.1.3.3l.1.7c.1.7-.1 1.3-.5 1.8-.3.4-.8.6-1.6.7zM382.9 400.8l.8 8.6c0 .2-.1.3-.3.3l-1.2.1c-.2 0-.3-.1-.3-.3l-.8-8.6c0-.2.1-.3.3-.3l1.2-.1c.1 0 .2.1.3.3zM388.5 409.2l-1.2.1c-.2 0-.3-.1-.3-.3l-.7-7.1c0-.1-.1-.2-.2-.1l-1.6.2c-.2 0-.3-.1-.3-.3l-.1-1c0-.2.1-.3.3-.3l5.4-.5c.2 0 .3.1.3.3l.1 1c0 .2-.1.3-.3.3l-1.6.2c-.1 0-.2.1-.2.2l.7 7.1c0 .1-.1.2-.3.2zM395.3 408.5l-1.2.1c-.2 0-.3-.1-.3-.3l-.3-3.1-3.1-5.3c0-.1-.1-.2 0-.2 0-.1.1-.1.2-.1l1.5-.1c.2 0 .3.1.4.3l1.8 3.3h.1l1.1-3.6c0-.2.2-.3.3-.3l1.5-.1c.1 0 .2 0 .2.1s.1.1 0 .2l-2.1 5.8.3 3.1c-.1.1-.2.2-.4.2zM404 407.7l-1.2.1c-.2 0-.3-.1-.3-.3l-.8-8.6c0-.2.1-.3.3-.3l3.5-.3c.7-.1 1.3.1 1.8.4.4.4.7.9.8 1.7l.1 1.4c.1.7-.1 1.3-.4 1.8-.4.4-.9.7-1.7.8l-1.8.2c-.1 0-.2.1-.2.2l.3 2.7c-.1.1-.2.2-.4.2zm0-4.8l1.5-.1c.3 0 .5-.1.6-.3.1-.1.2-.4.1-.7l-.1-1.2c0-.3-.1-.5-.2-.6-.1-.1-.4-.2-.7-.1l-1.5.1c-.1 0-.2.1-.1.2l.2 2.6c0 .1.1.1.2.1zM411 407l-1.4.1c-.2 0-.2-.1-.2-.3l1.4-8.8c0-.2.2-.3.4-.3l1.9-.2c.2 0 .4.1.5.3l3.1 8.3c.1.2 0 .3-.1.3l-1.4.1h-.2s-.1-.1-.1-.2l-.6-1.5-2.8.3-.2 1.6c0 .1 0 .2-.1.2 0 .1-.1.1-.2.1zm1.3-7.6l-.6 4.2 2.1-.2-1.5-4zM419.5 406.2l-1.2.1c-.2 0-.3-.1-.3-.3l-.8-8.6c0-.2.1-.3.3-.3l3.4-.3c.7-.1 1.3.1 1.8.4.5.4.7.9.8 1.7l.1 1.1c.1 1.1-.2 1.8-1.1 2.3v.1l1.8 3c.1.2 0 .3-.2.4l-1.2.1h-.4c-.1 0-.1-.1-.2-.2l-1.7-2.9-1 .1c-.1 0-.2.1-.2.2l.3 2.9c.1.1 0 .2-.2.2zm0-4.9l1.4-.1c.3 0 .5-.1.6-.3.1-.1.2-.4.2-.6l-.1-1.1c0-.3-.1-.5-.3-.6-.2-.1-.4-.2-.7-.1l-1.4.1c-.1 0-.2.1-.1.2l.2 2.5h.2zM427.3 405.4l-1.2.1c-.2 0-.3-.1-.3-.3l-.8-8.6c0-.2.1-.3.3-.3l1.2-.1c.2 0 .3.1.3.3l.4 4.1c.1-.2.2-.5.4-.9l1.9-3.4c.1-.2.3-.3.5-.4l1.4-.1c.1 0 .2 0 .2.1s0 .1-.1.2l-2.3 4 3.5 4.4c.1.1.1.2.1.3 0 .1-.1.1-.3.1l-1 .1c-.3 0-.6 0-.7-.2l-2.5-3.3-.8 1.1.2 2.4c-.1.3-.2.4-.4.4z"/></g></svg>