<svg version="1" id="Layer_1" xmlns="http://www.w3.org/2000/svg" viewBox="0 0 130 130"><style>.st0,.st1,.st2,.st3,.st4{fill:none;stroke:#e3032e;stroke-width:2.3;stroke-miterlimit:10}.st1,.st2,.st3,.st4{fill:#030404}.st2,.st3,.st4{fill:#fff}.st3,.st4{fill:none;stroke:#e4032e;stroke-linecap:round;stroke-linejoin:round}.st4{stroke:#e41a3d}.st5{fill:#e4032e}.st6,.st7{stroke:#e40d2e}.st6{fill:none;stroke-width:2.3;stroke-miterlimit:10}.st7{stroke-linecap:round;stroke-linejoin:round}.st10,.st11,.st7,.st8,.st9{fill:none;stroke-width:2.3;stroke-miterlimit:10}.st8{stroke-linecap:square;stroke-linejoin:round;stroke:#e40d2e}.st10,.st11,.st9{stroke:#e4032e}.st10,.st11{fill:#030404;stroke-linecap:round;stroke-linejoin:round}.st11{fill:#fff}</style><path class="st0" d="M99.4 19.1c-6.9 0-12.6 5.6-12.6 12.6V35c0 6.9 5.6 12.6 12.6 12.6 6.9 0 12.6-5.6 12.6-12.6v-3.4c0-6.9-5.7-12.5-12.6-12.5zM90.4 54c8.7.1 18.4 2 23.8 5 .1 0 .1.1.2.1 4.3 2.5 6.9 7.2 6.9 12.1v23.3c0 9.4-10.8 11.7-10.8 11.7"/><path class="st1" d="M109.6 74.4v43.8"/><path class="st0" d="M30.6 19.1c6.9 0 12.6 5.6 12.6 12.6V35c0 6.9-5.6 12.6-12.6 12.6C23.7 47.6 18 42 18 35v-3.4c0-6.9 5.7-12.5 12.6-12.5zM39.6 54c-8.7.1-18.4 2-23.8 5-.1 0-.1.1-.2.1-4.3 2.5-6.9 7.2-6.9 12.1v23.3c0 9.4 10.8 11.7 10.8 11.7"/><path class="st1" d="M20.4 74.5v43.7"/><path class="st0" d="M65.2 11.8c6.9 0 12.6 5.6 12.6 12.6v3.4c0 6.9-5.6 12.6-12.6 12.6-6.9 0-12.6-5.6-12.6-12.6v-3.4c0-6.9 5.7-12.6 12.6-12.6zM84 99s10.8-2.3 10.8-11.7V64c0-5-2.5-9.7-6.9-12.1-.1 0-.1-.1-.2-.1-5.4-3-13.7-5.6-22.4-5.6h-.6c-8.7.1-17 2.7-22.4 5.6-.1 0-.1.1-.2.1-4.3 2.5-6.9 7.2-6.9 12.1v23.3C35.2 96.7 46 99 46 99"/><path class="st1" d="M47.2 67.2v51"/><path class="st2" d="M83.2 67.2v51"/></svg>