<svg version="1" id="Layer_1" xmlns="http://www.w3.org/2000/svg" viewBox="0 0 130 130"><style>.st0,.st1,.st2,.st3,.st4{fill:none;stroke:#e3032e;stroke-width:2.3;stroke-miterlimit:10}.st1,.st2,.st3,.st4{fill:#030404}.st2,.st3,.st4{fill:#fff}.st3,.st4{fill:none;stroke:#e4032e;stroke-linecap:round;stroke-linejoin:round}.st4{stroke:#e41a3d}.st5{fill:#e4032e}.st6,.st7{stroke:#e40d2e}.st6{fill:none;stroke-width:2.3;stroke-miterlimit:10}.st7{stroke-linecap:round;stroke-linejoin:round}.st10,.st11,.st7,.st8,.st9{fill:none;stroke-width:2.3;stroke-miterlimit:10}.st8{stroke-linecap:square;stroke-linejoin:round;stroke:#e40d2e}.st10,.st11,.st9{stroke:#e4032e}.st10,.st11{fill:#030404;stroke-linecap:round;stroke-linejoin:round}.st11{fill:#fff}</style><path class="st3" d="M121.5 93.2c-7.3-35-31.6-65.7-67.4-79.7l-40 102.2 107.4-22.5z"/><circle class="st3" cx="44.6" cy="91.3" r="7.7"/><path class="st3" d="M109.9 95.7c-8.1-31.8-27-56.5-59-70.5"/><circle class="st3" cx="79.2" cy="83.6" r="7.7"/><circle class="st3" cx="61.7" cy="55.1" r="7.7"/><path class="st3" d="M63.1 31.2l6.3-9.8M77.3 41.6l7.7-9.7M89 53.4l9.9-7.5M98.9 66.8l10.3-5.6"/><path class="st4" d="M105 80l11.5-2.5"/><path class="st3" d="M47 66.4l3.8 6.6M82.5 66.7L75.7 68M63.7 84.7l-2.5 6.6M50.8 38.2l8 .4M93.6 80.6l2.4 9.2M29.1 100.4l-2 5.9"/></svg>