<?xml version="1.0" encoding="utf-8"?>
<!-- Generator: Adobe Illustrator 21.1.0, SVG Export Plug-In . SVG Version: 6.00 Build 0)  -->
<svg version="1.1" id="Layer_1" xmlns="http://www.w3.org/2000/svg" xmlns:xlink="http://www.w3.org/1999/xlink" x="0px" y="0px"
	 viewBox="0 0 130 130" style="enable-background:new 0 0 130 130;" xml:space="preserve">
<style type="text/css">
	.st0{fill:none;stroke:#E3032E;stroke-width:2.3;stroke-miterlimit:10;}
</style>
<path class="st0" d="M71.4,94.3c2.3-18.5,26.2-33.7,26.2-79.7H32c0,46,23.9,61.2,26.3,79.7H71.4z M54.5,40.6l6.8-0.9l3-6.2l3,6.2
	l6.8,0.9l-5,4.8l1.2,6.8l-6.1-3.3l-6.1,3.3l1.2-6.8C59.3,45.4,54.5,40.6,54.5,40.6z M36.6,59.9c1.3,3,2.7,5.8,4.1,8.4
	c-19-6.4-30.4-25-32.2-44.3h19.1c0.2,2.3,0.4,4.5,0.7,6.6H15.7C17.7,40,23,52.8,36.6,59.9z M83.5,111.3v6.5H46v-6.5
	c9.1,0,11.1-6.7,12.1-12.3h13.4C72.4,104.6,74.2,111.3,83.5,111.3z M121.1,24c-1.7,19.2-13.2,37.9-32.2,44.2
	c1.4-2.6,2.8-5.4,4.1-8.4c13.7-7.1,18.9-19.9,20.9-29.3h-12.6c0.3-2.1,0.5-4.3,0.7-6.6C102,23.9,121.1,24,121.1,24z"/>
</svg>
