<?xml version="1.0" standalone="no"?>
<!DOCTYPE svg PUBLIC "-//W3C//DTD SVG 20010904//EN"
 "http://www.w3.org/TR/2001/REC-SVG-20010904/DTD/svg10.dtd">
<svg version="1.0" xmlns="http://www.w3.org/2000/svg"
 width="1000.000000pt" height="1000.000000pt" viewBox="0 0 1000.000000 1000.000000"
 preserveAspectRatio="xMidYMid meet">
<metadata>
Created by potrace 1.11, written by Peter Selinger 2001-2013
</metadata>
<g transform="translate(0.000000,1000.000000) scale(0.100000,-0.100000)"
fill="#000000" stroke="none">
<path d="M4765 9694 c-137 -64 -322 -148 -410 -189 -88 -40 -281 -129 -430
-197 -148 -69 -405 -187 -570 -263 -165 -76 -334 -153 -375 -172 -343 -158
-966 -445 -1150 -529 -133 -60 -241 -116 -263 -136 l-38 -33 -2 -1539 -2
-1539 -130 -29 c-610 -138 -597 -134 -622 -167 -19 -25 -18 -3219 1 -3265 27
-66 31 -66 435 27 l364 84 61 -22 c34 -13 97 -40 141 -60 73 -34 938 -422
1270 -570 77 -34 318 -142 535 -240 217 -97 478 -214 580 -260 302 -135 554
-248 735 -330 109 -49 183 -76 205 -76 24 0 104 33 254 105 120 58 219 106
221 106 1 0 96 46 211 101 212 103 239 115 629 301 121 58 434 208 695 333
261 125 678 324 925 442 248 118 461 220 473 226 53 26 52 9 52 807 0 407 3
740 6 740 3 0 144 32 312 70 184 43 317 78 332 89 l25 18 3 1626 2 1626 -26
20 c-15 12 -39 21 -55 21 -21 0 -381 -78 -576 -125 l-23 -5 -2 764 -3 764 -23
25 c-12 13 -93 56 -180 95 -152 69 -529 238 -837 377 -82 37 -193 87 -245 110
-52 24 -192 87 -310 140 -118 54 -323 146 -455 205 -132 59 -357 160 -500 225
-241 109 -468 211 -791 356 -80 36 -145 59 -165 59 -21 -1 -127 -44 -284 -116z
m1540 -757 c633 -289 1328 -606 1545 -706 l395 -180 3 -715 c2 -674 1 -715
-15 -720 -10 -3 -58 -14 -108 -25 -137 -30 -746 -168 -777 -176 l-28 -7 0 206
0 205 29 15 c31 16 61 70 61 108 0 29 -33 83 -59 98 -20 10 -21 19 -21 255 0
278 10 245 -102 330 l-66 50 79 52 c45 31 84 50 93 47 47 -18 126 47 126 104
0 27 -25 79 -40 84 -7 2 -8 33 -4 90 6 73 10 89 26 93 23 8 48 55 48 93 0 57
-71 112 -126 98 -41 -11 -84 -59 -84 -96 0 -38 23 -85 46 -94 14 -5 16 -19 12
-83 -3 -56 -8 -78 -18 -81 -8 -3 -27 -18 -43 -33 -24 -24 -28 -36 -25 -71 l3
-43 -78 -53 c-46 -31 -83 -50 -90 -45 -7 4 -49 36 -94 72 -70 54 -83 69 -83
93 0 46 -48 88 -100 88 -52 0 -76 -13 -95 -50 -20 -39 -19 -69 5 -107 23 -39
76 -57 121 -41 18 6 34 7 42 1 6 -6 92 -72 190 -147 l177 -138 0 -227 0 -228
-26 -13 c-34 -19 -54 -59 -54 -111 0 -36 6 -48 40 -80 l40 -38 0 -210 0 -209
-32 -7 c-39 -8 -398 -89 -648 -146 -695 -157 -1005 -227 -1006 -226 -1 1 -43
84 -93 184 l-91 183 20 32 c23 39 26 88 6 127 -14 26 -10 36 156 342 l171 314
-7 115 c-10 170 -16 268 -27 435 -6 83 -13 282 -16 442 l-5 293 31 31 c24 24
31 39 31 70 0 51 -13 75 -50 94 -63 33 -128 7 -150 -59 -13 -41 6 -98 39 -116
20 -10 21 -17 21 -265 l0 -254 -186 -3 c-159 -3 -187 -1 -192 12 -11 31 -47
61 -83 66 -37 6 -37 7 -96 146 l-60 139 19 39 c17 33 18 45 9 73 -15 44 -40
66 -83 73 -40 7 -92 -15 -108 -45 -5 -11 -10 -38 -10 -61 0 -46 30 -85 73 -95
21 -6 35 -30 89 -158 34 -83 61 -156 59 -162 -21 -55 -6 -112 38 -138 41 -24
82 -21 121 8 33 25 37 25 226 25 l192 0 6 -52 c3 -29 13 -184 22 -343 l17
-291 -166 -304 c-165 -304 -165 -305 -202 -311 -22 -4 -49 -19 -68 -38 -27
-27 -32 -39 -32 -81 0 -40 5 -54 29 -79 16 -17 45 -34 63 -37 33 -6 38 -14
124 -185 49 -98 89 -180 89 -183 0 -2 -15 -6 -32 -9 -18 -3 -154 -34 -303 -67
-148 -34 -398 -91 -555 -126 -381 -87 -513 -116 -719 -163 l-175 -40 -29 25
c-25 21 -38 25 -86 22 -55 -2 -58 -1 -134 57 l-77 59 0 131 0 131 221 279
c122 154 225 290 230 303 5 13 9 109 9 213 l0 189 161 0 c157 0 162 -1 191
-25 69 -58 167 -10 168 83 0 37 10 57 71 143 53 74 81 104 107 115 51 21 71
41 78 81 8 41 -10 87 -42 108 -27 17 -86 20 -115 5 -42 -23 -63 -106 -35 -145
12 -18 7 -29 -53 -114 l-68 -93 -46 -2 c-47 -2 -97 -34 -97 -63 0 -10 -34 -13
-160 -13 l-160 0 0 139 0 139 30 30 c81 81 -9 212 -115 168 -36 -15 -65 -59
-65 -98 0 -26 24 -66 52 -86 17 -12 18 -38 18 -381 l0 -367 -200 -255 c-111
-140 -212 -266 -225 -281 -25 -26 -25 -29 -25 -197 l0 -170 90 -68 c90 -68 97
-77 81 -101 -6 -10 -404 -110 -443 -112 -3 0 -15 16 -27 35 -11 19 -36 42 -55
52 l-35 16 6 706 6 706 50 60 c287 344 358 424 387 430 73 16 105 115 55 169
-25 27 -25 28 -25 224 l0 197 30 28 c24 23 30 37 30 69 0 50 -13 74 -50 93
-45 23 -85 19 -122 -14 -28 -25 -33 -36 -33 -76 0 -41 4 -51 33 -74 l32 -27 0
-190 0 -189 -35 -28 c-41 -33 -54 -82 -32 -125 14 -29 13 -31 -33 -83 -25 -30
-119 -141 -208 -247 l-162 -194 0 -154 0 -154 -217 0 -218 1 -20 32 c-12 18
-33 36 -51 41 -29 9 -32 14 -43 75 -7 37 -22 111 -35 166 -20 88 -21 103 -9
122 34 51 12 122 -45 149 -72 34 -147 -17 -147 -99 0 -31 7 -45 33 -68 18 -16
41 -29 52 -29 11 0 20 -1 20 -3 0 -1 16 -76 35 -166 31 -147 34 -166 20 -181
-24 -27 -29 -74 -11 -108 32 -62 119 -79 161 -32 17 19 32 20 247 20 l228 0 0
-530 0 -530 -24 -15 c-28 -19 -56 -72 -56 -109 0 -30 10 -26 -255 -85 -99 -22
-290 -65 -424 -96 -134 -30 -250 -55 -258 -55 -11 0 -13 238 -11 1436 l3 1437
225 102 c124 57 713 324 1310 595 597 271 1222 554 1389 630 l304 138 51 -22
c28 -13 569 -260 1201 -549z m1938 -6928 c-8 -7 -267 -131 -1528 -729 -280
-133 -757 -359 -1059 -502 -302 -144 -554 -261 -560 -261 -12 0 -61 21 -1426
623 -514 226 -1090 480 -1279 563 -189 83 -340 152 -335 154 5 1 155 36 334
77 328 75 461 106 1140 261 206 47 393 90 415 95 22 6 150 35 285 66 266 60
1050 240 1220 279 58 14 274 63 480 110 206 47 402 92 435 100 33 8 159 37
280 64 121 28 301 69 400 92 99 22 266 61 370 84 105 24 312 72 460 106 149
34 293 67 320 73 l50 11 3 -629 c1 -347 -1 -633 -5 -637z"/>
</g>
</svg>
