<svg version="1" id="Layer_1" xmlns="http://www.w3.org/2000/svg" viewBox="0 0 130 130"><style>.st0,.st1,.st2,.st3,.st4{fill:none;stroke:#e3032e;stroke-width:2.3;stroke-miterlimit:10}.st1,.st2,.st3,.st4{fill:#030404}.st2,.st3,.st4{fill:#fff}.st3,.st4{fill:none;stroke:#e4032e;stroke-linecap:round;stroke-linejoin:round}.st4{stroke:#e41a3d}.st5{fill:#e4032e}.st6,.st7{stroke:#e40d2e}.st6{fill:none;stroke-width:2.3;stroke-miterlimit:10}.st7{stroke-linecap:round;stroke-linejoin:round}.st10,.st11,.st7,.st8,.st9{fill:none;stroke-width:2.3;stroke-miterlimit:10}.st8{stroke-linecap:square;stroke-linejoin:round;stroke:#e40d2e}.st10,.st11,.st9{stroke:#e4032e}.st10,.st11{fill:#030404;stroke-linecap:round;stroke-linejoin:round}.st11{fill:#fff}</style><path class="st3" d="M70.7 41.9c6.8 4.5 14.7 11.3 21.3 21.3M76.5 62.9c-2.7-6.4-6.4-12.9-11.3-19"/><path class="st9" d="M54 28.8c1.2-4.5 3.8-9.7 9.3-13.5 10-6.8 22.6-4.8 26.4-4 .4.1.6.7.2 1l-6.4 5.2c-.1.1-.3.2-.5.1l-5.2-1.9c-.4-.1-.8.2-.7.6l.3 4.2c0 .2-.1.4-.2.5l-12.5 8.9M66.3 29.6c3.6-1.4 7.9-2.1 12.7-1.2 11.9 2.4 19.3 12.8 21.3 16.1.2.4-.1.9-.5.8l-8.2-1c-.2 0-.3-.1-.4-.3l-2.3-5c-.2-.4-.6-.4-.9-.1L85.2 42c-.1.1-.3.2-.5.2l-12.9-2.4"/><path class="st9" d="M59.3 31.9c-3-2.5-11.8-8.5-22.6-5.3-11.7 3.3-18.2 14.3-20 17.8-.2.4.2.9.6.8l8.1-1.7c.2 0 .3-.2.4-.3l1.9-5.2c.1-.4.6-.5.9-.2l3 2.9c.1.1.3.2.5.1l14-3.8"/><circle class="st9" cx="65.4" cy="36.5" r="7"/><path class="st9" d="M59.5 33.2c-1.4-1.6-3.5-2.6-5.8-2.6-4.2 0-7.6 3.4-7.6 7.6s3.4 7.6 7.6 7.6c2.9 0 5.4-1.6 6.7-4"/><path class="st3" d="M87.6 57.2h-7"/><path class="st9" d="M27.8 91.3h77.8v25H27.8zM24.5 121.5h-5.8c-1.8 0-3.3-1.5-3.3-3.3v-31c0-1.8 1.5-3.3 3.3-3.3h5.8c1.8 0 3.3 1.5 3.3 3.3v30.9c0 1.9-1.5 3.4-3.3 3.4zM114.8 121.5H109c-1.8 0-3.3-1.5-3.3-3.3v-31c0-1.8 1.5-3.3 3.3-3.3h5.8c1.8 0 3.3 1.5 3.3 3.3v30.9c0 1.9-1.5 3.4-3.3 3.4z"/><path class="st9" d="M21.4 83V67.6c0-2.1 1.7-3.8 3.8-3.8H63c2.1 0 3.8 1.7 3.8 3.8v19.9c0 2.1-1.7 3.8-3.8 3.8H28.4"/><path class="st9" d="M105 91.3H70.4c-2.1 0-3.8-1.7-3.8-3.8V67.6c0-2.1 1.7-3.8 3.8-3.8h37.8c2.1 0 3.8 1.7 3.8 3.8V83M31.6 110.8h71M32.2 85.3h28M73.2 85.3h28"/></svg>