<svg version="1" id="Layer_1" xmlns="http://www.w3.org/2000/svg" viewBox="0 0 130 130"><style>.st0,.st1,.st2,.st3,.st4{fill:none;stroke:#e3032e;stroke-width:2.3;stroke-miterlimit:10}.st1,.st2,.st3,.st4{fill:#030404}.st2,.st3,.st4{fill:#fff}.st3,.st4{fill:none;stroke:#e4032e;stroke-linecap:round;stroke-linejoin:round}.st4{stroke:#e41a3d}.st5{fill:#e4032e}.st6,.st7{stroke:#e40d2e}.st6{fill:none;stroke-width:2.3;stroke-miterlimit:10}.st7{stroke-linecap:round;stroke-linejoin:round}.st10,.st11,.st7,.st8,.st9{fill:none;stroke-width:2.3;stroke-miterlimit:10}.st8{stroke-linecap:square;stroke-linejoin:round;stroke:#e40d2e}.st10,.st11,.st9{stroke:#e4032e}.st10,.st11{fill:#030404;stroke-linecap:round;stroke-linejoin:round}.st11{fill:#fff}</style><path class="st3" d="M67.6 50.1l-1.4 2-1.4-2-3.4 27 4.8 5.5 4.7-5.5z"/><path class="st3" d="M60.9 44.1l5.3 7.5 5.4-7.6"/><path class="st3" d="M95.9 83.1V61.3c0-4.9-2.5-9.5-6.8-12-.1 0-.1-.1-.2-.1-5.3-2.9-13.5-5.5-22.1-5.6h-.5c-1.6 0-3.2.1-4.8.3-6.8.8-13 2.9-17.3 5.3-.1 0-.1.1-.2.1-4.3 2.4-6.8 7.1-6.8 12v21.8M90.7 84l-4.2 37.2M42.6 84l4.3 37.2M56.5 101.4l7.1-1 3.1-6.4 3.1 6.4 7 1-5.1 4.9 1.2 7-6.2-3.3-6.3 3.3 1.3-7zM31 83.4h71.3M66.7 11C73.5 11 79 16.6 79 23.4v3.4c0 6.8-5.6 12.4-12.4 12.4-6.8 0-12.4-5.6-12.4-12.4v-3.4c.1-6.8 5.7-12.4 12.5-12.4z"/><g><path class="st10" d="M48.9 66.8v15.6"/><path class="st11" d="M84.4 66.8v15.6"/></g></svg>