<?xml version="1.0" encoding="UTF-8" standalone="no"?>
<!-- Created with Inkscape (http://www.inkscape.org/) -->

<svg
   xmlns:dc="http://purl.org/dc/elements/1.1/"
   xmlns:cc="http://creativecommons.org/ns#"
   xmlns:rdf="http://www.w3.org/1999/02/22-rdf-syntax-ns#"
   xmlns:svg="http://www.w3.org/2000/svg"
   xmlns="http://www.w3.org/2000/svg"
   xmlns:sodipodi="http://sodipodi.sourceforge.net/DTD/sodipodi-0.dtd"
   xmlns:inkscape="http://www.inkscape.org/namespaces/inkscape"
   width="203.67351mm"
   height="33.129669mm"
   viewBox="0 0 203.67351 33.129669"
   version="1.1"
   id="svg5126"
   inkscape:version="0.92.3 (2405546, 2018-03-11)"
   sodipodi:docname="logo_nova.svg">
  <defs
     id="defs5120" />
  <sodipodi:namedview
     id="base"
     pagecolor="#ffffff"
     bordercolor="#666666"
     borderopacity="1.0"
     inkscape:pageopacity="0.0"
     inkscape:pageshadow="2"
     inkscape:zoom="1.4"
     inkscape:cx="401.38916"
     inkscape:cy="-42.297536"
     inkscape:document-units="mm"
     inkscape:current-layer="layer1"
     showgrid="false"
     inkscape:window-width="1920"
     inkscape:window-height="1001"
     inkscape:window-x="-9"
     inkscape:window-y="-9"
     inkscape:window-maximized="1" />
  <metadata
     id="metadata5123">
    <rdf:RDF>
      <cc:Work
         rdf:about="">
        <dc:format>image/svg+xml</dc:format>
        <dc:type
           rdf:resource="http://purl.org/dc/dcmitype/StillImage" />
        <dc:title />
      </cc:Work>
    </rdf:RDF>
  </metadata>
  <g
     inkscape:label="Layer 1"
     inkscape:groupmode="layer"
     id="layer1"
     transform="translate(-3.4057487,-1.5178439)">
    <text
       xml:space="preserve"
       style="font-style:normal;font-variant:normal;font-weight:normal;font-stretch:normal;font-size:15.883008px;line-height:1.25;font-family:Formata;-inkscape-font-specification:Formata;letter-spacing:0px;word-spacing:0px;fill:#000000;fill-opacity:1;stroke:none;stroke-width:0.42543775"
       x="42.238766"
       y="33.71154"
       id="text4498-1"
       inkscape:export-xdpi="1200"
       inkscape:export-ydpi="1200"><tspan
         sodipodi:role="line"
         id="tspan4496-8"
         x="42.238766"
         y="33.71154"
         style="font-style:normal;font-variant:normal;font-weight:normal;font-stretch:normal;font-family:Formata;-inkscape-font-specification:Formata;fill:#000000;fill-opacity:1;stroke-width:0.42543775">IEEE Student Branch</tspan></text>
    <text
       xml:space="preserve"
       style="font-style:normal;font-variant:normal;font-weight:normal;font-stretch:normal;font-size:20.7315712px;line-height:1.25;font-family:Formata;-inkscape-font-specification:Formata;letter-spacing:0px;word-spacing:0px;fill:#000000;fill-opacity:1;stroke:none;stroke-width:0.55530995"
       x="44.367458"
       y="18.070751"
       id="text4498-5-07"
       transform="scale(0.95867149,1.0431102)"
       inkscape:export-xdpi="1200"
       inkscape:export-ydpi="1200"><tspan
         sodipodi:role="line"
         x="44.367458"
         y="18.070751"
         style="font-style:normal;font-variant:normal;font-weight:bold;font-stretch:normal;font-family:Formata;-inkscape-font-specification:Formata;fill:#000000;fill-opacity:1;stroke-width:0.55530995"
         id="tspan5085-3">FURG</tspan></text>
    <g
       style="fill-rule:evenodd;image-rendering:optimizeQuality;shape-rendering:geometricPrecision;text-rendering:geometricPrecision"
       id="g4668-2-6-9"
       transform="matrix(0.38359621,0,0,0.38359621,-577.40038,-27.15659)"
       inkscape:export-xdpi="1200"
       inkscape:export-ydpi="1200">
      <path
         style="fill:#ffffff;fill-rule:evenodd;stroke:none;stroke-width:0.21545903;image-rendering:optimizeQuality;shape-rendering:geometricPrecision;text-rendering:geometricPrecision"
         inkscape:connector-curvature="0"
         id="path0-7-1-2-4"
         d="m 1542.8628,82.12553 c -2e-4,0.46194 0.01,0.65736 0.016,0.43458 0.01,-0.22279 0.01,-0.60049 3e-4,-0.83965 -0.01,-0.23894 -0.017,-0.0567 -0.017,0.40507 m 31.9538,1.87686 c 0,0.38029 0.01,0.52938 0.017,0.33116 0.01,-0.19801 0.01,-0.50913 -2e-4,-0.69141 -0.01,-0.18206 -0.017,-0.02 -0.017,0.36025 m -35.56,0.29626 c 0,0.38028 0.01,0.52938 0.017,0.33137 0.01,-0.19822 0.01,-0.50934 -2e-4,-0.69162 -0.01,-0.18206 -0.017,-0.02 -0.017,0.36025 m 3.6557,4.93896 c 0,0.48888 0.01,0.68236 0.016,0.42963 0.01,-0.25252 0.01,-0.65263 -2e-4,-0.88898 -0.01,-0.23636 -0.016,-0.0295 -0.016,0.45935 m -13.3882,4.71662 c 0,0.20382 0.01,0.28699 0.019,0.18529 0.01,-0.10191 0.01,-0.26867 0,-0.37059 -0.011,-0.10169 -0.019,-0.0185 -0.019,0.1853 m -6.3009,1.2223 c 0.03,0.3178 0.05,0.34365 0.056,0.0741 0,-0.14264 -0.012,-0.2592 -0.034,-0.2592 -0.022,0 -0.032,0.0834 -0.022,0.18508 m 19.7382,1.32119 c 0,0.46173 0.01,0.65737 0.017,0.43459 0.01,-0.22279 0.01,-0.60049 0,-0.83965 -0.01,-0.23894 -0.017,-0.0567 -0.017,0.40506 m 31.8056,1.28414 c 2e-4,0.38029 0.01,0.52938 0.017,0.33116 0.01,-0.19801 0.01,-0.50913 0,-0.69141 -0.01,-0.18206 -0.017,-0.02 -0.017,0.36025 m -35.4611,0.19757 c 0,0.38029 0.01,0.52939 0.017,0.33116 0.01,-0.198 0.01,-0.50913 -2e-4,-0.6914 -0.01,-0.18207 -0.017,-0.02 -0.017,0.36024 m 45.6849,0.56795 c 0,0.39386 0.01,0.55503 0.017,0.3581 0.01,-0.19693 0.01,-0.51926 0,-0.71619 -0.01,-0.19693 -0.017,-0.0358 -0.017,0.35809 m 5.7275,0.61729 c 0,0.2717 0.01,0.37663 0.018,0.23313 0.01,-0.14371 0.01,-0.36585 -2e-4,-0.49405 -0.01,-0.12798 -0.018,-0.0106 -0.018,0.26092 m -61.1449,2.00033 c 0,0.20382 0.01,0.28699 0.019,0.18529 0.011,-0.10191 0.011,-0.26868 0,-0.37037 -0.011,-0.10192 -0.019,-0.0185 -0.019,0.18508 m -6.2709,0.27169 c 0,0.27169 0.01,0.37641 0.018,0.23291 0.01,-0.14349 0.01,-0.36585 -2e-4,-0.49383 -0.01,-0.1282 -0.018,-0.0108 -0.018,0.26092 m 19.7085,2.17312 c 0,0.48888 0.01,0.68236 0.016,0.42962 0.01,-0.25273 0.01,-0.65262 0,-0.88898 -0.01,-0.23636 -0.016,-0.0297 -0.016,0.45936 m 47.7567,1.97554 c 2e-4,0.2717 0.01,0.37641 0.019,0.23291 0.01,-0.14349 0.01,-0.36584 -5e-4,-0.49383 -0.01,-0.1282 -0.018,-0.0108 -0.018,0.26092 m -67.4158,2.2718 c 2e-4,0.2717 0.01,0.37663 0.019,0.23291 0.01,-0.14349 0.01,-0.36563 -2e-4,-0.49383 -0.01,-0.12798 -0.018,-0.0106 -0.018,0.26092 m 6.2709,0.51861 c 0,0.20383 0.01,0.28721 0.019,0.1853 0.011,-0.10191 0.011,-0.26868 0,-0.37038 -0.011,-0.10191 -0.019,-0.0185 -0.019,0.18508 m 13.4373,2.49416 c 0,0.46173 0.01,0.65736 0.017,0.43458 0.01,-0.22279 0.01,-0.60049 0,-0.83965 -0.01,-0.23894 -0.016,-0.0567 -0.017,0.40507 m 31.6576,0.6914 c 3e-4,0.38029 0.01,0.52939 0.017,0.33138 0.01,-0.19822 0.01,-0.50934 -2e-4,-0.69162 -0.01,-0.18207 -0.017,-0.02 -0.017,0.36024 m -35.3622,0.0741 c 0,0.39386 0.01,0.55503 0.017,0.3581 0.01,-0.19693 0.01,-0.51926 0,-0.71619 -0.01,-0.19693 -0.017,-0.0358 -0.017,0.35809 m 51.4615,0.37038 c 2e-4,0.27169 0.01,0.37662 0.018,0.23291 0.01,-0.1435 0.01,-0.36563 -2e-4,-0.49383 -0.01,-0.12798 -0.018,-0.0106 -0.018,0.26092 m -5.7767,1.03722 c 0,0.40743 0.01,0.56752 0.017,0.35572 0.01,-0.21158 0.01,-0.54511 -2e-4,-0.74075 -0.01,-0.19563 -0.017,-0.0224 -0.017,0.38503 m -61.6391,1.23479 c 2e-4,0.27148 0.01,0.37641 0.018,0.23292 0.01,-0.1435 0.01,-0.36585 -3e-4,-0.49384 -0.01,-0.12819 -0.018,-0.0108 -0.018,0.26092 m 6.271,1.3087 c 0,0.20383 0.01,0.28721 0.019,0.1853 0.011,-0.10191 0.011,-0.26868 0,-0.37038 -0.011,-0.10191 -0.019,-0.0185 -0.019,0.18508 m 13.4377,2.39548 c 0,0.48887 0.01,0.68214 0.016,0.42962 0.01,-0.25273 0.01,-0.65262 -2e-4,-0.88898 -0.01,-0.23636 -0.016,-0.0297 -0.016,0.45936 m 47.7565,0.44449 c 2e-4,0.27148 0.01,0.3764 0.018,0.23291 0.01,-0.1435 0.01,-0.36585 -2e-4,-0.49383 -0.01,-0.1282 -0.018,-0.0108 -0.018,0.26092 m 9.3826,0.0741 c 0,0.20361 0.01,0.28699 0.019,0.18508 0.011,-0.10191 0.011,-0.26846 0,-0.37038 -0.011,-0.10191 -0.019,-0.0185 -0.019,0.1853 m -76.7982,2.19768 c 0,0.27169 0.01,0.37641 0.018,0.23291 0.01,-0.14349 0.01,-0.36563 -3e-4,-0.49383 -0.01,-0.1282 -0.018,-0.0108 -0.018,0.26092 m 6.271,2.099 c 0,0.20383 0.01,0.28721 0.019,0.1853 0.011,-0.10192 0.011,-0.26868 0,-0.37038 -0.011,-0.10191 -0.019,-0.0185 -0.019,0.18508 m 61.1942,2.04966 c 0,0.2717 0.01,0.37641 0.018,0.23291 0.01,-0.14349 0.01,-0.36563 -2e-4,-0.49383 -0.01,-0.1282 -0.018,-0.0108 -0.018,0.26092 m -47.7569,0.39516 c 0,0.46172 0.01,0.65736 0.016,0.43458 0.01,-0.22279 0.01,-0.6007 2e-4,-0.83965 -0.01,-0.23894 -0.017,-0.0567 -0.017,0.40507 m -3.7542,0.0741 c 0,0.39385 0.01,0.55502 0.017,0.35809 0.01,-0.19693 0.01,-0.51926 0,-0.71619 -0.01,-0.19693 -0.017,-0.0358 -0.017,0.3581 m 35.2636,0.0246 c 0,0.38028 0.01,0.52938 0.017,0.33137 0.01,-0.19822 0.01,-0.50934 -3e-4,-0.69162 -0.01,-0.18206 -0.017,-0.02 -0.017,0.36025 m -51.1682,1.77818 c 0,0.27148 0.01,0.37641 0.018,0.23291 0.01,-0.1435 0.01,-0.36585 -3e-4,-0.49405 -0.01,-0.12798 -0.018,-0.0106 -0.018,0.26114 m 61.5896,0.44449 c 0,0.40743 0.01,0.56752 0.017,0.35572 0.01,-0.21179 0.01,-0.54511 -2e-4,-0.74074 -0.01,-0.19586 -0.017,-0.0226 -0.017,0.38502 m -55.3187,2.4446 c 0,0.20382 0.01,0.28721 0.019,0.18529 0.011,-0.10191 0.011,-0.26867 0,-0.37037 -0.011,-0.10191 -0.019,-0.0185 -0.019,0.18508 m 61.1943,1.25957 c 2e-4,0.27148 0.01,0.37641 0.018,0.23291 0.01,-0.14349 0.01,-0.36585 -2e-4,-0.49404 -0.01,-0.12799 -0.018,-0.0106 -0.018,0.26113 m -47.7576,0.98767 c 0,0.38028 0.01,0.52938 0.017,0.33116 0.01,-0.19801 0.01,-0.50913 -2e-4,-0.69141 -0.01,-0.18206 -0.017,-0.02 -0.017,0.36025 m -19.6583,1.28413 c 2e-4,0.2717 0.01,0.37641 0.018,0.23291 0.01,-0.14349 0.01,-0.36585 -2e-4,-0.49383 -0.01,-0.1282 -0.018,-0.0108 -0.018,0.26092 m 6.2709,3.6794 c 0,0.20382 0.01,0.2872 0.019,0.18529 0.011,-0.10191 0.011,-0.26846 0,-0.37037 -0.011,-0.10191 -0.019,-0.0185 -0.019,0.18508 m 61.1943,0.46927 c 2e-4,0.27169 0.01,0.3764 0.018,0.23291 0.01,-0.1435 0.01,-0.36564 -2e-4,-0.49383 -0.01,-0.1282 -0.018,-0.0108 -0.018,0.26092 m -67.4159,2.2718 c 2e-4,0.27169 0.01,0.37662 0.019,0.23312 0.01,-0.14371 0.01,-0.36585 -2e-4,-0.49404 -0.01,-0.12799 -0.018,-0.0106 -0.018,0.26092 m 61.5403,2.12378 c 2e-4,0.40743 0.01,0.56752 0.017,0.35593 0.01,-0.21179 0.01,-0.54532 -2e-4,-0.74096 -0.01,-0.19564 -0.017,-0.0224 -0.017,0.38503 m 5.9246,2.00032 c 0,0.25812 0.01,0.36348 0.018,0.23463 0.01,-0.12906 0.01,-0.34021 0,-0.46927 -0.01,-0.12906 -0.018,-0.0235 -0.018,0.23464 m -61.194,0.34559 c 0,0.20383 0.01,0.28721 0.019,0.1853 0.011,-0.10191 0.011,-0.26846 0,-0.37038 -0.011,-0.10191 -0.019,-0.0185 -0.019,0.18508 m 51.632,0.53068 c 0.1969,0.009 0.519,0.009 0.7159,0 0.197,-0.01 0.036,-0.017 -0.3578,-0.017 -0.3941,0 -0.5551,0.007 -0.3581,0.017 m -14.3453,0.0493 c 0.2118,0.01 0.5451,0.009 0.7408,0 0.1958,-0.01 0.022,-0.017 -0.3851,-0.0168 -0.4074,0 -0.5675,0.007 -0.3557,0.0168 m -14.3722,0.0496 c 0.2118,0.009 0.5451,0.009 0.7408,-2.2e-4 0.1958,-0.009 0.023,-0.017 -0.3851,-0.0168 -0.4074,0 -0.5675,0.008 -0.3557,0.017 m -14.3722,0.0493 c 0.2118,0.009 0.5451,0.009 0.741,-2.1e-4 0.1956,-0.009 0.022,-0.0168 -0.385,-0.0168 -0.4077,0 -0.5678,0.008 -0.356,0.017" />
      <path
         style="fill:#c80028;fill-rule:evenodd;stroke:none;stroke-width:0.21545903;image-rendering:optimizeQuality;shape-rendering:geometricPrecision;text-rendering:geometricPrecision"
         inkscape:connector-curvature="0"
         id="path1-7-12-0-7"
         d="m 1574.8482,84.08879 c 0.01,4.13574 -0.1597,50.97718 -0.1817,51.38913 l -0.027,0.50633 h -17.5974 -17.5974 l -0.028,-0.60501 c -0.015,-0.33288 -0.064,-12.19541 -0.1094,-26.36141 -0.045,-14.166 -0.085,-25.7592 -0.088,-25.76265 0,-0.004 -2.1624,1.39014 -4.7972,3.09722 -2.6351,1.70708 -4.8117,3.11166 -4.8369,3.12093 -0.043,0.0159 0.3051,55.54512 0.3482,55.5936 0.017,0.0192 55.148,-0.14845 55.1745,-0.16784 0.033,-0.0243 -0.1883,-55.95471 -0.2217,-55.98337 -0.073,-0.0618 -9.9785,-6.02467 -10.0089,-6.02467 -0.017,0 -0.03,0.53908 -0.029,1.19774" />
      <path
         style="fill:#e06400;fill-rule:evenodd;stroke:none;stroke-width:0.21545903;image-rendering:optimizeQuality;shape-rendering:geometricPrecision;text-rendering:geometricPrecision"
         inkscape:connector-curvature="0"
         id="path2-5-8-9-9"
         d="m 1529.5274,90.25006 c 0,0.421 0.01,0.59337 0.017,0.38287 0.01,-0.21051 0.01,-0.55502 0,-0.76553 -0.01,-0.21072 -0.017,-0.0383 -0.017,0.38266 m 45.2925,1.72862 c 0,1.20873 0.01,1.70321 0.014,1.09885 0.01,-0.60437 0.01,-1.59332 0,-2.19769 -0.01,-0.60436 -0.014,-0.10988 -0.014,1.09884 m -35.56,0.22236 c 0,1.19515 0.01,1.67692 0.014,1.07083 0.01,-0.6063 0.01,-1.58427 0,-2.17312 -0.01,-0.58907 -0.014,-0.0931 -0.014,1.10229 m 45.6847,0.22214 c 0,1.26323 0.01,1.7799 0.014,1.14839 0.01,-0.63172 0.01,-1.66506 0,-2.29657 -0.01,-0.63173 -0.014,-0.11484 -0.014,1.14818 m -62.1733,3.34306 c -11.6061,17.82363 -11.5353,33.86305 0.212,47.99436 l 0.5729,0.68882 0.014,-1.35567 c 0.013,-1.23178 -0.3199,-46.80782 -0.348,-47.64467 l -0.012,-0.35723 -0.4391,0.67439 m 67.9808,0.92906 c -8e-4,0.86938 0.076,11.504 0.1707,23.63262 0.095,12.12862 0.1725,22.52991 0.1734,23.11402 v 1.06178 l 0.4848,-0.74075 c 9.8697,-15.08472 11.2762,-29.29015 4.1323,-41.73355 -1.2889,-2.24509 -3.3478,-5.14042 -4.7589,-6.69238 l -0.2021,-0.22213 v 1.58039 m -61.1738,0.34581 c 0,0.65176 0.01,0.91182 0.015,0.57743 0.01,-0.33439 0.01,-0.86765 0,-1.18524 -0.01,-0.3178 -0.015,-0.0442 -0.015,0.60781 m 0.049,7.21077 c 0,0.65198 0.01,0.91182 0.015,0.57743 0.01,-0.33439 0.01,-0.86766 0,-1.18524 -0.01,-0.3178 -0.015,-0.0442 -0.015,0.60781 m 45.1428,1.50627 c 0,1.20873 0.01,1.70342 0.014,1.09884 0.01,-0.60436 0.01,-1.59332 0,-2.19768 -0.01,-0.60436 -0.014,-0.10988 -0.014,1.09884 m -35.4611,0.12346 c 0,1.19515 0.01,1.67713 0.014,1.07083 0.01,-0.60609 0.01,-1.58405 0,-2.17312 -0.01,-0.58885 -0.014,-0.0929 -0.014,1.10229 m 45.6848,1.062 c 0,1.26302 0.01,1.77969 0.014,1.14818 0.01,-0.63151 0.01,-1.66507 0,-2.29658 -0.01,-0.63151 -0.014,-0.11484 -0.014,1.1484 m -55.3171,4.51903 c 0,0.65198 0.01,0.91183 0.016,0.57743 0.01,-0.33439 0.01,-0.86765 -2e-4,-1.18524 -0.01,-0.3178 -0.015,-0.0442 -0.015,0.60781 m 45.0441,8.07498 c 0,1.20894 0.01,1.70342 0.014,1.09905 0.01,-0.60457 0.01,-1.59353 0,-2.19789 -0.01,-0.60437 -0.014,-0.10989 -0.014,1.09884 m -35.3625,0.0248 c 0,1.19515 0.01,1.67713 0.014,1.07083 0.01,-0.6063 0.01,-1.58405 0,-2.17312 -0.01,-0.58885 -0.014,-0.0929 -0.014,1.10229 m -9.6323,-0.88898 c 2e-4,0.65197 0.01,0.91182 0.016,0.57743 0.01,-0.3344 0.01,-0.86766 0,-1.18524 -0.01,-0.31759 -0.016,-0.0442 -0.016,0.60781 m 55.3172,2.7904 c 0,1.26324 0.01,1.77991 0.014,1.1484 0.01,-0.63172 0.01,-1.66507 0,-2.29658 -0.01,-0.63172 -0.014,-0.11484 -0.014,1.14818 m -55.2678,4.37102 c 0,0.62462 0.01,0.87347 0.016,0.55287 0.01,-0.32082 0.01,-0.83189 0,-1.13612 -0.01,-0.30401 -0.016,-0.0416 -0.016,0.58325 m 9.6323,7.40835 c 0,1.19515 0.01,1.67691 0.014,1.07083 0.01,-0.6063 0.01,-1.58427 0,-2.17312 -0.01,-0.58907 -0.014,-0.0931 -0.014,1.10229 m 35.2637,0.0739 c 0,1.20894 0.01,1.70341 0.014,1.09905 0.01,-0.60436 0.01,-1.59353 0,-2.1979 -0.01,-0.60436 -0.014,-0.10988 -0.014,1.09885 m -44.8467,-0.27148 c 0,0.62461 0.01,0.87347 0.016,0.55286 0.01,-0.32081 0.01,-0.83188 0,-1.13611 -0.01,-0.30401 -0.016,-0.0416 -0.016,0.58325 m 55.2678,2.93864 c 0,1.26302 0.01,1.77969 0.014,1.14818 0.01,-0.63151 0.01,-1.66506 0,-2.29657 -0.01,-0.63151 -0.014,-0.11484 -0.014,1.14839 m -55.2185,4.27212 c 2e-4,0.62462 0.01,0.87347 0.016,0.55287 0.01,-0.32082 0.01,-0.83189 0,-1.13611 -0.01,-0.30402 -0.016,-0.0416 -0.016,0.58324 m 42.5892,4.70412 c 0.6588,0.008 1.7366,0.008 2.3954,0 0.6587,-0.008 0.1198,-0.014 -1.1977,-0.014 -1.3175,0 -1.8564,0.006 -1.1977,0.014 m -14.3722,0.0496 c 0.6588,0.008 1.7368,0.008 2.3954,0 0.6587,-0.008 0.1198,-0.0142 -1.1977,-0.0142 -1.3173,0 -1.8564,0.006 -1.1977,0.0142 m -14.372,0.0493 c 0.6587,0.008 1.7366,0.008 2.3953,0 0.6586,-0.008 0.1198,-0.0142 -1.1978,-0.0142 -1.3173,0 -1.8564,0.006 -1.1975,0.0142 m -13.0605,0.0493 c 0.4296,0.008 1.1187,0.008 1.5311,0 0.4126,-0.008 0.061,-0.0151 -0.7809,-0.0151 -0.842,0 -1.1796,0.007 -0.7502,0.0151 m -0.8541,5.92663 c 10e-4,0.058 1.6319,1.20463 2.913,2.04859 16.8177,11.08019 33.8474,10.64518 51.1061,-1.3059 0.5507,-0.38115 1.0131,-0.71252 1.0277,-0.73644 0.015,-0.0246 -11.7738,-0.0431 -27.5105,-0.0431 -15.1454,0 -27.5367,0.0166 -27.5363,0.0368" />
      <path
         style="fill:#f8a400;fill-rule:evenodd;stroke:none;stroke-width:0.21545903;image-rendering:optimizeQuality;shape-rendering:geometricPrecision;text-rendering:geometricPrecision"
         inkscape:connector-curvature="0"
         id="path3-9-0-2-1"
         d="m 1554.0294,74.79518 c -3.806,0.19628 -7.1853,0.98077 -10.5585,2.45149 l -0.6311,0.27514 0.023,0.17819 c 0.013,0.098 0.036,3.21185 0.051,6.91968 0.016,3.70784 0.039,7.07503 0.052,7.48246 0.013,0.40744 0.035,3.51888 0.049,6.91451 0.014,3.39542 0.036,6.76262 0.05,7.48247 0.013,0.71984 0.035,3.8091 0.049,6.86495 0.014,3.05586 0.036,6.44524 0.05,7.5318 0.013,1.08656 0.038,4.237 0.055,7.00091 l 0.031,5.02537 h 13.502 13.5017 V 105.12061 77.31928 l -0.5556,-0.17409 c -5.8046,-1.82063 -10.9556,-2.59305 -15.6684,-2.35001 m 20.7888,13.82514 c 0,0.5839 0.01,0.82284 0.016,0.5309 0.01,-0.29217 0.01,-0.76984 0,-1.062 -0.01,-0.29195 -0.016,-0.053 -0.016,0.5311 m -35.56,0.24692 c 0,0.58389 0.01,0.82284 0.016,0.53089 0.01,-0.29195 0.01,-0.76983 0,-1.06178 -0.01,-0.29216 -0.016,-0.0532 -0.016,0.53089 m 45.6819,0.59251 c 0,0.28527 0.01,0.40205 0.018,0.25942 0.01,-0.14264 0.01,-0.37598 0,-0.51861 -0.01,-0.14264 -0.018,-0.0259 -0.018,0.25919 m -55.414,2.07444 c 0,0.31242 0.01,0.44019 0.018,0.28398 0.01,-0.15621 0.01,-0.41174 0,-0.56795 -0.01,-0.15621 -0.018,-0.0284 -0.018,0.28397 m 61.185,4.23507 0.011,0.72846 0.015,-0.68106 c 0.012,-0.52012 0.029,-0.67267 0.075,-0.64487 0.038,0.0228 0.036,0.006 -0.01,-0.0474 -0.037,-0.0459 -0.076,-0.0836 -0.086,-0.0836 -0.01,0 -0.014,0.32793 -0.01,0.72846 m -67.4555,2.85225 c 3e-4,0.51603 0.01,0.7205 0.016,0.45419 0.01,-0.26609 0.01,-0.68839 0,-0.93833 -0.01,-0.24993 -0.016,-0.0319 -0.016,0.48414 m 6.3201,0.12346 c 0,0.31241 0.01,0.44018 0.018,0.28397 0.01,-0.1562 0.01,-0.41174 0,-0.56795 -0.01,-0.1562 -0.018,-0.0284 -0.018,0.28398 m 61.1947,3.2349 c 0,0.51624 0.01,0.72071 0.016,0.4544 0.01,-0.2663 0.01,-0.6886 0,-0.93854 -0.01,-0.24971 -0.016,-0.0319 -0.016,0.48414 m -16.0017,0.41993 c 0,0.58389 0.01,0.82284 0.016,0.53089 0.01,-0.29195 0.01,-0.76983 0,-1.06178 -0.01,-0.29216 -0.016,-0.0532 -0.016,0.53089 m -35.4611,0.14802 c 0,0.58411 0.01,0.82305 0.016,0.53111 0.01,-0.29217 0.01,-0.76984 0,-1.062 -0.01,-0.29195 -0.016,-0.053 -0.016,0.53089 m 45.6848,0.86442 c 0,0.59769 0.01,0.83534 0.016,0.52809 0.01,-0.30703 0.01,-0.7959 0,-1.08656 -0.01,-0.29044 -0.016,-0.0392 -0.016,0.55847 m -61.6872,1.62973 c 0,0.51624 0.01,0.72072 0.016,0.45441 0.01,-0.26631 0.01,-0.68861 0,-0.93833 -0.01,-0.24993 -0.016,-0.0321 -0.016,0.48392 m 6.3198,0.91377 c 0,0.31241 0.01,0.44018 0.018,0.28397 0.01,-0.15621 0.01,-0.41174 0,-0.56795 -0.01,-0.15621 -0.018,-0.0284 -0.018,0.28398 m 61.1947,2.44481 c 0,0.51602 0.01,0.72049 0.016,0.45419 0.01,-0.26631 0.01,-0.68839 -2e-4,-0.93833 -0.01,-0.24993 -0.016,-0.0321 -0.016,0.48414 m -67.4652,3.0621 c 0,0.51603 0.01,0.7205 0.016,0.45419 0.01,-0.26631 0.01,-0.68839 0,-0.93832 -0.01,-0.24994 -0.016,-0.0321 -0.016,0.48413 m 6.3199,1.70385 c 0,0.31242 0.01,0.44019 0.018,0.28398 0.01,-0.15621 0.01,-0.41174 0,-0.56795 -0.01,-0.15621 -0.018,-0.0284 -0.018,0.28397 m 61.1946,1.65451 c 3e-4,0.51624 0.01,0.7205 0.016,0.45441 0.01,-0.26631 0.01,-0.68861 -2e-4,-0.93854 -0.01,-0.24972 -0.016,-0.0319 -0.016,0.48413 m -16.1497,1.35826 c 0,0.58411 0.01,0.82284 0.016,0.53089 0.01,-0.29195 0.01,-0.76984 0,-1.06178 -0.01,-0.29217 -0.016,-0.0532 -0.016,0.53089 m -35.3624,0.0493 c 0,0.58411 0.01,0.82305 0.016,0.53089 0.01,-0.29195 0.01,-0.76984 0,-1.06178 -0.01,-0.29195 -0.016,-0.053 -0.016,0.53089 m 45.6848,1.70385 c 0,0.59768 0.01,0.83533 0.016,0.5283 0.01,-0.30703 0.01,-0.79612 0,-1.08656 -0.01,-0.29044 -0.016,-0.0392 -0.016,0.55826 m -61.6379,-0.0493 c 0,0.51624 0.01,0.72049 0.016,0.4544 0.01,-0.26631 0.01,-0.68861 -2e-4,-0.93854 -0.01,-0.24972 -0.016,-0.0319 -0.016,0.48414 m 76.7926,-0.51861 c 0,0.12238 0.01,0.17236 0.021,0.11117 0.012,-0.0612 0.012,-0.16116 0,-0.22213 -0.012,-0.0612 -0.021,-0.0112 -0.021,0.11096 m 0,2.29658 c 7e-4,0.1088 0.011,0.14737 0.023,0.086 0.012,-0.0614 0.011,-0.1504 0,-0.19758 -0.012,-0.0472 -0.022,0.003 -0.022,0.11161 m -86.0838,0.32104 c 0,0.12238 0.01,0.17237 0.022,0.11118 0.012,-0.0612 0.012,-0.16117 0,-0.22214 -0.012,-0.0612 -0.022,-0.0112 -0.022,0.11096 m 15.6121,0.39515 c 0,0.31242 0.01,0.44019 0.018,0.28398 0.01,-0.15621 0.01,-0.41174 0,-0.56795 -0.01,-0.15621 -0.018,-0.0284 -0.018,0.28397 m 61.1949,0.86442 c 0,0.51603 0.01,0.7205 0.016,0.45419 0.01,-0.26631 0.01,-0.6886 0,-0.93832 -0.01,-0.24993 -0.016,-0.0321 -0.016,0.48413 m -76.807,0.86421 c 0,0.12217 0.01,0.17237 0.022,0.11118 0.012,-0.0612 0.012,-0.16117 0,-0.22236 -0.012,-0.061 -0.022,-0.011 -0.022,0.11118 m 9.3416,2.1979 c 3e-4,0.51602 0.01,0.72049 0.016,0.45419 0.01,-0.26631 0.01,-0.68861 -2e-4,-0.93833 -0.01,-0.24993 -0.016,-0.0321 -0.016,0.48414 m 67.5148,3.35836 c 0,0.51602 0.01,0.72049 0.016,0.45419 0.01,-0.2661 0.01,-0.6884 0,-0.93833 -0.01,-0.24972 -0.016,-0.0319 -0.016,0.48414 m -61.1949,-0.0741 c 0,0.31241 0.01,0.44018 0.018,0.28397 0.01,-0.1562 0.01,-0.41174 0,-0.56795 -0.01,-0.1562 -0.018,-0.0284 -0.018,0.28398 m 9.6331,2.32135 c 0,0.5839 0.01,0.82284 0.016,0.5309 0.01,-0.29195 0.01,-0.76984 0,-1.06179 -0.01,-0.29216 -0.016,-0.0532 -0.016,0.53089 m 35.2638,0.0493 c 0,0.58411 0.01,0.82306 0.016,0.53089 0.01,-0.29194 0.01,-0.76983 0,-1.06178 -0.01,-0.29194 -0.016,-0.0532 -0.016,0.53089 m -51.1672,0.76552 c 0,0.51602 0.01,0.72049 0.016,0.4544 0.01,-0.26631 0.01,-0.6886 0,-0.93854 -0.01,-0.24971 -0.016,-0.0319 -0.016,0.48414 m 61.5883,1.72863 c 0,0.59768 0.01,0.83533 0.016,0.52809 0.01,-0.30703 0.01,-0.79591 -2e-4,-1.08635 -0.01,-0.29065 -0.016,-0.0394 -0.016,0.55826 m 5.9262,1.62973 c 0,0.51624 0.01,0.72071 0.016,0.4544 0.01,-0.26631 0.01,-0.68861 0,-0.93832 -0.01,-0.24993 -0.016,-0.0321 -0.016,0.48392 m -61.1947,0.71618 c 0,0.31242 0.01,0.44019 0.018,0.28398 0.01,-0.15621 0.01,-0.41174 0,-0.56795 -0.01,-0.15621 -0.018,-0.0284 -0.018,0.28397 m 18.4196,1.17296 c 4.8578,0.007 12.7922,0.007 17.6319,0 4.8398,-0.007 0.8653,-0.0125 -8.8323,-0.0125 -9.6974,0 -13.6573,0.006 -8.7996,0.0125 m -24.6901,1.17318 c 0,0.51602 0.01,0.72049 0.016,0.45419 0.01,-0.26631 0.01,-0.68861 0,-0.93833 -0.01,-0.24993 -0.016,-0.0321 -0.016,0.48414 m 67.5145,3.35836 c 0,0.51602 0.01,0.72049 0.016,0.45419 0.01,-0.2661 0.01,-0.6884 -2e-4,-0.93833 -0.01,-0.24993 -0.016,-0.0321 -0.016,0.48414 m -61.1944,1.53105 c 0,0.32599 0.01,0.45289 0.018,0.28204 0.01,-0.17086 0.01,-0.4376 -3e-4,-0.59273 -0.01,-0.15513 -0.018,-0.0153 -0.017,0.31069 m -6.3015,1.53105 c -0.01,0.50267 0,0.91376 0.023,0.91376 0.02,0 0.037,-0.41131 0.037,-0.91376 0,-0.50245 -0.01,-0.91376 -0.023,-0.91376 -0.013,0 -0.029,0.41131 -0.037,0.91376 m 52.9674,1.3951 c 0.2921,0.009 0.7698,0.009 1.062,0 0.2919,-0.009 0.053,-0.0159 -0.5309,-0.0159 -0.5841,0 -0.8231,0.007 -0.5311,0.0159 m -14.372,0.0493 c 0.292,0.009 0.7698,0.009 1.0618,0 0.2919,-0.009 0.053,-0.0159 -0.5309,-0.0159 -0.5841,0 -0.8231,0.007 -0.5309,0.0159 m -14.3722,0.0493 c 0.292,0.009 0.7698,0.009 1.0618,0 0.2919,-0.009 0.053,-0.0159 -0.5309,-0.0159 -0.5841,0 -0.823,0.007 -0.5309,0.0159 m -14.3722,0.0493 c 0.292,0.009 0.7699,0.009 1.0618,0 0.2919,-0.009 0.053,-0.0157 -0.5309,-0.0157 -0.5841,0 -0.8228,0.007 -0.5309,0.0157" />
      <path
         style="fill:#fed584;fill-rule:evenodd;stroke:none;stroke-width:0.21545903;image-rendering:optimizeQuality;shape-rendering:geometricPrecision;text-rendering:geometricPrecision"
         inkscape:connector-curvature="0"
         id="path4-9-6-7-5"
         d="m 1554.238,74.77751 c 0.088,0.011 0.2433,0.0112 0.3456,4.3e-4 0.1026,-0.0105 0.031,-0.0196 -0.1594,-0.0198 -0.1901,-2.1e-4 -0.2739,0.009 -0.1862,0.0194 m 2.5706,6.5e-4 c 0.1162,0.0106 0.2939,0.0103 0.395,-2.2e-4 0.1013,-0.0108 0.01,-0.0192 -0.2112,-0.019 -0.2174,0 -0.3001,0.009 -0.1838,0.0192 m -3.4085,0.048 c 0.061,0.0119 0.1502,0.0114 0.1973,-8.6e-4 0.047,-0.0125 0,-0.0222 -0.1116,-0.0215 -0.1086,6.5e-4 -0.1473,0.0108 -0.086,0.0224 m 4.4937,0 c 0.061,0.0119 0.1611,0.0119 0.2223,0 0.061,-0.0118 0.011,-0.0213 -0.1112,-0.0213 -0.1221,0 -0.1721,0.009 -0.1111,0.0213 m -5.1612,0.0485 c 0.048,0.0125 0.1254,0.0125 0.1731,0 0.047,-0.0123 0.01,-0.0224 -0.087,-0.0224 -0.095,0 -0.1338,0.0101 -0.086,0.0224 m 5.8772,0 c 0.048,0.0125 0.1254,0.0125 0.1731,0 0.047,-0.0123 0.01,-0.0224 -0.087,-0.0224 -0.095,0 -0.1338,0.0101 -0.086,0.0224 m 11.6679,30.24139 c 0,15.30686 0.01,21.56875 0.013,13.91542 0.01,-7.65353 0.01,-20.1773 0,-27.83062 -0.01,-7.65354 -0.013,-1.39165 -0.013,13.9152 m -27.413,-25.6575 c 0,0.95082 0.01,1.33261 0.015,0.84869 0.01,-0.48371 0.01,-1.26173 0,-1.72841 -0.01,-0.4669 -0.015,-0.0709 -0.015,0.87972 m 0.049,7.16142 c 0,0.97797 0.01,1.38497 0.015,0.9045 0.01,-0.48026 0.01,-1.28047 2e-4,-1.77797 -0.01,-0.49749 -0.015,-0.1045 -0.015,0.87347 m 31.9045,-0.41971 c 0,0.71963 0.01,1.01416 0.015,0.65435 0.01,-0.36003 0.01,-0.94888 0,-1.30892 -0.01,-0.35981 -0.015,-0.0653 -0.015,0.65457 m -35.56,0.24691 c 0,0.71985 0.01,1.01417 0.015,0.65435 0.01,-0.36003 0.01,-0.94888 0,-1.30891 -0.01,-0.35982 -0.015,-0.0653 -0.015,0.65456 m -9.7314,6.34635 c 2e-4,0.40743 0.01,0.56752 0.017,0.35594 0.01,-0.2118 0.01,-0.54511 0,-0.74096 -0.01,-0.19564 -0.017,-0.0224 -0.017,0.38502 m 13.4362,1.03722 c 0,0.95082 0.01,1.33261 0.015,0.84869 0.01,-0.48392 0.01,-1.26172 0,-1.72862 -0.01,-0.46669 -0.015,-0.0709 -0.015,0.87993 m -19.7073,2.83997 c 0,0.58389 0.01,0.82283 0.016,0.53089 0.01,-0.29217 0.01,-0.76984 0,-1.062 -0.01,-0.29195 -0.016,-0.053 -0.016,0.53111 m 67.4651,0.83942 c 0,0.58411 0.01,0.82306 0.016,0.53111 0.01,-0.29216 0.01,-0.77005 0,-1.062 -0.01,-0.29194 -0.016,-0.053 -0.016,0.53089 m -15.9519,2.4696 c 0,0.71984 0.01,1.01416 0.015,0.65434 0.01,-0.36003 0.01,-0.94888 0,-1.30891 -0.01,-0.35982 -0.015,-0.0653 -0.015,0.65457 m -35.4611,0.14802 c 0,0.71984 0.01,1.01438 0.015,0.65456 0.01,-0.36003 0.01,-0.94888 0,-1.30891 -0.01,-0.35982 -0.015,-0.0655 -0.015,0.65435 m 3.7048,0.86442 c 0,0.97775 0.01,1.38497 0.015,0.90449 0.01,-0.48047 0.01,-1.28047 0,-1.77796 -0.01,-0.4975 -0.015,-0.1045 -0.015,0.87347 m -13.4362,-0.98788 c 0,0.40743 0.01,0.56773 0.017,0.35594 0.01,-0.2118 0.01,-0.54512 0,-0.74097 -0.01,-0.19563 -0.017,-0.0224 -0.017,0.38503 m 55.4162,0.83964 c 0,0.76057 0.01,1.0648 0.015,0.67611 0.01,-0.38869 0.01,-1.01093 0,-1.38281 -0.01,-0.37189 -0.015,-0.0539 -0.015,0.7067 m -61.6876,2.24724 c 0,0.58411 0.01,0.82284 0.016,0.53089 0.01,-0.29195 0.01,-0.76983 0,-1.06178 -0.01,-0.29216 -0.016,-0.0532 -0.016,0.53089 m 67.4654,0.83964 c 0,0.5839 0.01,0.82284 0.016,0.53089 0.01,-0.29194 0.01,-0.76983 0,-1.06178 -0.01,-0.29216 -0.016,-0.0532 -0.016,0.53089 m -61.1447,3.28425 c 0,0.40743 0.01,0.56773 0.017,0.35593 0.01,-0.21179 0.01,-0.54511 -2e-4,-0.74096 -0.01,-0.19564 -0.017,-0.0224 -0.017,0.38503 m 13.4362,0.98788 c 0,0.9506 0.01,1.33261 0.015,0.84869 0.01,-0.48392 0.01,-1.26173 0,-1.72863 -0.01,-0.46668 -0.015,-0.0709 -0.015,0.87994 m -19.7074,1.30869 c 0,0.58411 0.01,0.82306 0.016,0.53111 0.01,-0.29216 0.01,-0.77005 0,-1.062 -0.01,-0.29194 -0.016,-0.053 -0.016,0.53089 m 67.4652,0.83965 c 0,0.58411 0.01,0.82305 0.016,0.53089 0.01,-0.29195 0.01,-0.76984 0,-1.06178 -0.01,-0.29195 -0.016,-0.053 -0.016,0.53089 m -16.1002,3.40791 c 0,0.71985 0.01,1.01438 0.015,0.65435 0.01,-0.35982 0.01,-0.94888 0,-1.3087 -0.01,-0.36003 -0.015,-0.0655 -0.015,0.65435 m -35.3624,0.0493 c 0,0.71985 0.01,1.01438 0.015,0.65435 0.01,-0.35981 0.01,-0.94888 0,-1.3087 -0.01,-0.36003 -0.015,-0.0655 -0.015,0.65435 m 3.7542,1.53105 c 0,0.99155 0.01,1.39704 0.015,0.90127 0.01,-0.49556 0.01,-1.30676 0,-1.80253 -0.01,-0.49577 -0.015,-0.0903 -0.015,0.90126 m -13.4363,-0.91376 c 0,0.40744 0.01,0.56774 0.017,0.35594 0.01,-0.2118 0.01,-0.54511 -2e-4,-0.74096 -0.01,-0.19564 -0.017,-0.0224 -0.017,0.38502 m 55.3669,0.93854 c 0,0.76057 0.01,1.0648 0.015,0.67611 0.01,-0.3889 0.01,-1.01115 -2e-4,-1.38303 -0.01,-0.37188 -0.015,-0.0537 -0.015,0.70692 m -61.6381,0.56795 c 0,0.5839 0.01,0.82284 0.016,0.53089 0.01,-0.29194 0.01,-0.76983 0,-1.06178 -0.01,-0.29216 -0.016,-0.0532 -0.016,0.53089 m 67.4652,0.83965 c 0,0.58389 0.01,0.82283 0.016,0.53089 0.01,-0.29195 0.01,-0.76984 0,-1.062 -0.01,-0.29195 -0.016,-0.053 -0.016,0.53111 m 9.3259,0.22213 c 7e-4,0.1086 0.011,0.14738 0.023,0.086 0.012,-0.0616 0.011,-0.15039 0,-0.19757 -0.012,-0.0472 -0.022,0.003 -0.022,0.11161 m -86.0838,2.59305 c 0,0.12216 0.01,0.17215 0.021,0.11096 0.012,-0.061 0.012,-0.16117 0,-0.22214 -0.012,-0.0612 -0.021,-0.0112 -0.021,0.11118 m 86.0849,0.44449 c 0,0.12216 0.01,0.17215 0.021,0.11096 0.012,-0.061 0.012,-0.16116 0,-0.22214 -0.012,-0.0612 -0.021,-0.0112 -0.021,0.11118 m -57.0354,2.54349 c 0,0.95061 0.01,1.33262 0.015,0.84869 0.01,-0.48392 0.01,-1.26172 0,-1.72862 -0.01,-0.46669 -0.015,-0.0709 -0.015,0.87993 m -13.4363,-0.93854 c 2e-4,0.40765 0.01,0.56774 0.017,0.35594 0.01,-0.2118 0.01,-0.54511 0,-0.74096 -0.01,-0.19564 -0.017,-0.0224 -0.017,0.38502 m -6.2711,0.71619 c 0,0.58411 0.01,0.82305 0.016,0.53089 0.01,-0.29195 0.01,-0.76984 0,-1.06178 -0.01,-0.29195 -0.016,-0.053 -0.016,0.53089 m 67.4652,0.83964 c 0,0.58411 0.01,0.82306 0.016,0.53089 0.01,-0.29194 0.01,-0.76983 0,-1.06178 -0.01,-0.29195 -0.016,-0.0532 -0.016,0.53089 m -76.8073,-0.69141 c 0,0.12217 0.01,0.17216 0.021,0.11118 0.012,-0.0612 0.012,-0.16116 0,-0.22235 -0.012,-0.0612 -0.021,-0.011 -0.021,0.11117 m 25.2953,4.98831 c 0,0.71985 0.01,1.01417 0.015,0.65435 0.01,-0.35982 0.01,-0.94888 0,-1.3087 -0.01,-0.36003 -0.015,-0.0655 -0.015,0.65435 m 35.2638,0.0493 c 0,0.71985 0.01,1.01438 0.015,0.65435 0.01,-0.35982 0.01,-0.94888 0,-1.3087 -0.01,-0.36003 -0.015,-0.0655 -0.015,0.65435 m -51.1677,1.2348 c 0,0.58389 0.01,0.82284 0.016,0.53089 0.01,-0.29195 0.01,-0.76984 0,-1.062 -0.01,-0.29195 -0.016,-0.053 -0.016,0.53111 m 19.7076,0.93832 c 0,0.99154 0.01,1.39704 0.015,0.90127 0.01,-0.49578 0.01,-1.30698 0,-1.80253 -0.01,-0.49578 -0.015,-0.0903 -0.015,0.90126 m -13.4364,-0.86442 c 2e-4,0.40765 0.01,0.56773 0.017,0.35594 0.01,-0.2118 0.01,-0.54511 0,-0.74097 -0.01,-0.19563 -0.017,-0.0224 -0.017,0.38503 m 55.3176,1.03722 c 0,0.76057 0.01,1.0648 0.015,0.67611 0.01,-0.38869 0.01,-1.01093 0,-1.38282 -0.01,-0.37188 -0.015,-0.0539 -0.015,0.70671 m 5.8766,-0.27169 c 0,0.5841 0.01,0.82305 0.016,0.5311 0.01,-0.29216 0.01,-0.76983 0,-1.062 -0.01,-0.29194 -0.016,-0.053 -0.016,0.5309 m -67.4158,5.58103 c 0,0.58411 0.01,0.82305 0.016,0.53089 0.01,-0.29195 0.01,-0.76983 0,-1.06178 -0.01,-0.29195 -0.016,-0.0532 -0.016,0.53089 m 67.4652,0.83964 c 0,0.58411 0.01,0.82284 0.016,0.5309 0.01,-0.29195 0.01,-0.76984 0,-1.06179 -0.01,-0.29216 -0.016,-0.0532 -0.016,0.53089 m -61.1941,0.0248 c 0,0.40744 0.01,0.56752 0.017,0.35573 0.01,-0.2118 0.01,-0.54511 -2e-4,-0.74075 -0.01,-0.19585 -0.017,-0.0226 -0.017,0.38502 m -6.2218,5.55605 c 0,0.58411 0.01,0.82305 0.016,0.5311 0.01,-0.29216 0.01,-0.76983 0,-1.06199 -0.01,-0.29195 -0.016,-0.053 -0.016,0.53089 m 67.4652,0.83964 c 0,0.58411 0.01,0.82305 0.016,0.53111 0.01,-0.29217 0.01,-0.77005 0,-1.062 -0.01,-0.29195 -0.016,-0.053 -0.016,0.53089 m -61.1943,0.83964 c 0,0.39386 0.01,0.55503 0.017,0.3581 0.01,-0.19693 0.01,-0.51926 0,-0.71619 -0.01,-0.19693 -0.017,-0.0358 -0.017,0.35809 m 55.2672,0.69141 c 0,0.52982 0.01,0.74657 0.016,0.48155 0.01,-0.2648 0.01,-0.69808 0,-0.9631 -0.01,-0.2648 -0.016,-0.0481 -0.016,0.48155 m -6.3299,0.97538 c 0.4005,0.008 1.0561,0.008 1.4569,0 0.4007,-0.008 0.073,-0.0151 -0.7285,-0.0151 -0.8013,0 -1.1292,0.007 -0.7284,0.0151 m -14.3722,0.0493 c 0.4007,0.008 1.0564,0.008 1.4569,0 0.4007,-0.008 0.073,-0.0151 -0.7285,-0.0151 -0.8013,0 -1.1292,0.007 -0.7284,0.0151 m -14.3722,0.0495 c 0.4007,0.008 1.0564,0.008 1.4569,0 0.4008,-0.008 0.073,-0.0153 -0.7285,-0.0153 -0.8013,0 -1.1292,0.007 -0.7284,0.0153 m -14.3722,0.0493 c 0.4007,0.008 1.0564,0.008 1.4569,0 0.4008,-0.008 0.073,-0.0151 -0.7285,-0.0151 -0.8013,0 -1.129,0.007 -0.7284,0.0151 m 19.287,15.95065 c 0.061,0.0116 0.1504,0.0112 0.1976,-0.001 0.047,-0.0123 0,-0.022 -0.1118,-0.0216 -0.1086,6.5e-4 -0.1472,0.0108 -0.086,0.0226 m 4.1486,0 c 0.061,0.0116 0.1504,0.0112 0.1976,-0.001 0.047,-0.0123 0,-0.022 -0.1118,-0.0215 -0.1086,6.5e-4 -0.1472,0.0108 -0.086,0.0226 m -2.8141,0.0508 c 0.1435,0.01 0.3658,0.01 0.4938,-2.1e-4 0.1282,-0.0101 0.011,-0.0183 -0.2609,-0.0183 -0.2717,2.1e-4 -0.3764,0.008 -0.2329,0.0185 m 1.1852,0 c 0.1435,0.01 0.3659,0.01 0.494,-2.2e-4 0.128,-0.0101 0.011,-0.0183 -0.2611,-0.0183 -0.2715,2.2e-4 -0.3764,0.008 -0.2329,0.0185" />
    </g>
  </g>
</svg>
